<?xml version="1.0" encoding="utf-8" standalone="no"?>
<!DOCTYPE svg PUBLIC "-//W3C//DTD SVG 1.1//EN"
  "http://www.w3.org/Graphics/SVG/1.1/DTD/svg11.dtd">
<!-- Created with matplotlib (https://matplotlib.org/) -->
<svg height="360pt" version="1.1" viewBox="0 0 720 360" width="720pt" xmlns="http://www.w3.org/2000/svg" xmlns:xlink="http://www.w3.org/1999/xlink">
 <defs>
  <style type="text/css">
*{stroke-linecap:butt;stroke-linejoin:round;}
  </style>
 </defs>
 <g id="figure_1">
  <g id="patch_1">
   <path d="M 0 360 
L 720 360 
L 720 0 
L 0 0 
z
" style="fill:#ffffff;"/>
  </g>
  <g id="axes_1">
   <g id="patch_2">
    <path d="M 90 320.4 
L 648 320.4 
L 648 43.2 
L 90 43.2 
z
" style="fill:#ffffff;"/>
   </g>
   <g id="patch_3">
    <path clip-path="url(#p09f5bce0a0)" d="M 103.95 320.4 
L 131.85 320.4 
L 131.85 281.177042 
L 103.95 281.177042 
z
" style="fill:#1f77b4;"/>
   </g>
   <g id="patch_4">
    <path clip-path="url(#p09f5bce0a0)" d="M 159.75 320.4 
L 187.65 320.4 
L 187.65 138.622393 
L 159.75 138.622393 
z
" style="fill:#1f77b4;"/>
   </g>
   <g id="patch_5">
    <path clip-path="url(#p09f5bce0a0)" d="M 215.55 320.4 
L 243.45 320.4 
L 243.45 230.715931 
L 215.55 230.715931 
z
" style="fill:#1f77b4;"/>
   </g>
   <g id="patch_6">
    <path clip-path="url(#p09f5bce0a0)" d="M 271.35 320.4 
L 299.25 320.4 
L 299.25 223.783617 
L 271.35 223.783617 
z
" style="fill:#1f77b4;"/>
   </g>
   <g id="patch_7">
    <path clip-path="url(#p09f5bce0a0)" d="M 327.15 320.4 
L 355.05 320.4 
L 355.05 320.320903 
L 327.15 320.320903 
z
" style="fill:#1f77b4;"/>
   </g>
   <g id="patch_8">
    <path clip-path="url(#p09f5bce0a0)" d="M 382.95 320.4 
L 410.85 320.4 
L 410.85 320.4 
L 382.95 320.4 
z
" style="fill:#1f77b4;"/>
   </g>
   <g id="patch_9">
    <path clip-path="url(#p09f5bce0a0)" d="M 438.75 320.4 
L 466.65 320.4 
L 466.65 235.877652 
L 438.75 235.877652 
z
" style="fill:#1f77b4;"/>
   </g>
   <g id="patch_10">
    <path clip-path="url(#p09f5bce0a0)" d="M 494.55 320.4 
L 522.45 320.4 
L 522.45 56.4 
L 494.55 56.4 
z
" style="fill:#1f77b4;"/>
   </g>
   <g id="patch_11">
    <path clip-path="url(#p09f5bce0a0)" d="M 550.35 320.4 
L 578.25 320.4 
L 578.25 221.232171 
L 550.35 221.232171 
z
" style="fill:#1f77b4;"/>
   </g>
   <g id="patch_12">
    <path clip-path="url(#p09f5bce0a0)" d="M 606.15 320.4 
L 634.05 320.4 
L 634.05 304.758682 
L 606.15 304.758682 
z
" style="fill:#1f77b4;"/>
   </g>
   <g id="patch_13">
    <path clip-path="url(#p09f5bce0a0)" d="M 95.58 320.4 
L 140.22 320.4 
L 140.22 320.4 
L 95.58 320.4 
z
" style="fill:#1f77b4;"/>
   </g>
   <g id="matplotlib.axis_1">
    <g id="xtick_1">
     <g id="line2d_1">
      <defs>
       <path d="M 0 0 
L 0 3.5 
" id="md39a56a95c" style="stroke:#000000;stroke-width:0.8;"/>
      </defs>
      <g>
       <use style="stroke:#000000;stroke-width:0.8;" x="117.9" xlink:href="#md39a56a95c" y="320.4"/>
      </g>
     </g>
     <g id="text_1">
      <!-- ENC1101-20191-21-M-010 English Composition I - B105 MW -->
      <defs>
       <path d="M 9.8125 72.90625 
L 55.90625 72.90625 
L 55.90625 64.59375 
L 19.671875 64.59375 
L 19.671875 43.015625 
L 54.390625 43.015625 
L 54.390625 34.71875 
L 19.671875 34.71875 
L 19.671875 8.296875 
L 56.78125 8.296875 
L 56.78125 0 
L 9.8125 0 
z
" id="DejaVuSans-69"/>
       <path d="M 9.8125 72.90625 
L 23.09375 72.90625 
L 55.421875 11.921875 
L 55.421875 72.90625 
L 64.984375 72.90625 
L 64.984375 0 
L 51.703125 0 
L 19.390625 60.984375 
L 19.390625 0 
L 9.8125 0 
z
" id="DejaVuSans-78"/>
       <path d="M 64.40625 67.28125 
L 64.40625 56.890625 
Q 59.421875 61.53125 53.78125 63.8125 
Q 48.140625 66.109375 41.796875 66.109375 
Q 29.296875 66.109375 22.65625 58.46875 
Q 16.015625 50.828125 16.015625 36.375 
Q 16.015625 21.96875 22.65625 14.328125 
Q 29.296875 6.6875 41.796875 6.6875 
Q 48.140625 6.6875 53.78125 8.984375 
Q 59.421875 11.28125 64.40625 15.921875 
L 64.40625 5.609375 
Q 59.234375 2.09375 53.4375 0.328125 
Q 47.65625 -1.421875 41.21875 -1.421875 
Q 24.65625 -1.421875 15.125 8.703125 
Q 5.609375 18.84375 5.609375 36.375 
Q 5.609375 53.953125 15.125 64.078125 
Q 24.65625 74.21875 41.21875 74.21875 
Q 47.75 74.21875 53.53125 72.484375 
Q 59.328125 70.75 64.40625 67.28125 
z
" id="DejaVuSans-67"/>
       <path d="M 12.40625 8.296875 
L 28.515625 8.296875 
L 28.515625 63.921875 
L 10.984375 60.40625 
L 10.984375 69.390625 
L 28.421875 72.90625 
L 38.28125 72.90625 
L 38.28125 8.296875 
L 54.390625 8.296875 
L 54.390625 0 
L 12.40625 0 
z
" id="DejaVuSans-49"/>
       <path d="M 31.78125 66.40625 
Q 24.171875 66.40625 20.328125 58.90625 
Q 16.5 51.421875 16.5 36.375 
Q 16.5 21.390625 20.328125 13.890625 
Q 24.171875 6.390625 31.78125 6.390625 
Q 39.453125 6.390625 43.28125 13.890625 
Q 47.125 21.390625 47.125 36.375 
Q 47.125 51.421875 43.28125 58.90625 
Q 39.453125 66.40625 31.78125 66.40625 
z
M 31.78125 74.21875 
Q 44.046875 74.21875 50.515625 64.515625 
Q 56.984375 54.828125 56.984375 36.375 
Q 56.984375 17.96875 50.515625 8.265625 
Q 44.046875 -1.421875 31.78125 -1.421875 
Q 19.53125 -1.421875 13.0625 8.265625 
Q 6.59375 17.96875 6.59375 36.375 
Q 6.59375 54.828125 13.0625 64.515625 
Q 19.53125 74.21875 31.78125 74.21875 
z
" id="DejaVuSans-48"/>
       <path d="M 4.890625 31.390625 
L 31.203125 31.390625 
L 31.203125 23.390625 
L 4.890625 23.390625 
z
" id="DejaVuSans-45"/>
       <path d="M 19.1875 8.296875 
L 53.609375 8.296875 
L 53.609375 0 
L 7.328125 0 
L 7.328125 8.296875 
Q 12.9375 14.109375 22.625 23.890625 
Q 32.328125 33.6875 34.8125 36.53125 
Q 39.546875 41.84375 41.421875 45.53125 
Q 43.3125 49.21875 43.3125 52.78125 
Q 43.3125 58.59375 39.234375 62.25 
Q 35.15625 65.921875 28.609375 65.921875 
Q 23.96875 65.921875 18.8125 64.3125 
Q 13.671875 62.703125 7.8125 59.421875 
L 7.8125 69.390625 
Q 13.765625 71.78125 18.9375 73 
Q 24.125 74.21875 28.421875 74.21875 
Q 39.75 74.21875 46.484375 68.546875 
Q 53.21875 62.890625 53.21875 53.421875 
Q 53.21875 48.921875 51.53125 44.890625 
Q 49.859375 40.875 45.40625 35.40625 
Q 44.1875 33.984375 37.640625 27.21875 
Q 31.109375 20.453125 19.1875 8.296875 
z
" id="DejaVuSans-50"/>
       <path d="M 10.984375 1.515625 
L 10.984375 10.5 
Q 14.703125 8.734375 18.5 7.8125 
Q 22.3125 6.890625 25.984375 6.890625 
Q 35.75 6.890625 40.890625 13.453125 
Q 46.046875 20.015625 46.78125 33.40625 
Q 43.953125 29.203125 39.59375 26.953125 
Q 35.25 24.703125 29.984375 24.703125 
Q 19.046875 24.703125 12.671875 31.3125 
Q 6.296875 37.9375 6.296875 49.421875 
Q 6.296875 60.640625 12.9375 67.421875 
Q 19.578125 74.21875 30.609375 74.21875 
Q 43.265625 74.21875 49.921875 64.515625 
Q 56.59375 54.828125 56.59375 36.375 
Q 56.59375 19.140625 48.40625 8.859375 
Q 40.234375 -1.421875 26.421875 -1.421875 
Q 22.703125 -1.421875 18.890625 -0.6875 
Q 15.09375 0.046875 10.984375 1.515625 
z
M 30.609375 32.421875 
Q 37.25 32.421875 41.125 36.953125 
Q 45.015625 41.5 45.015625 49.421875 
Q 45.015625 57.28125 41.125 61.84375 
Q 37.25 66.40625 30.609375 66.40625 
Q 23.96875 66.40625 20.09375 61.84375 
Q 16.21875 57.28125 16.21875 49.421875 
Q 16.21875 41.5 20.09375 36.953125 
Q 23.96875 32.421875 30.609375 32.421875 
z
" id="DejaVuSans-57"/>
       <path d="M 9.8125 72.90625 
L 24.515625 72.90625 
L 43.109375 23.296875 
L 61.8125 72.90625 
L 76.515625 72.90625 
L 76.515625 0 
L 66.890625 0 
L 66.890625 64.015625 
L 48.09375 14.015625 
L 38.1875 14.015625 
L 19.390625 64.015625 
L 19.390625 0 
L 9.8125 0 
z
" id="DejaVuSans-77"/>
       <path id="DejaVuSans-32"/>
       <path d="M 54.890625 33.015625 
L 54.890625 0 
L 45.90625 0 
L 45.90625 32.71875 
Q 45.90625 40.484375 42.875 44.328125 
Q 39.84375 48.1875 33.796875 48.1875 
Q 26.515625 48.1875 22.3125 43.546875 
Q 18.109375 38.921875 18.109375 30.90625 
L 18.109375 0 
L 9.078125 0 
L 9.078125 54.6875 
L 18.109375 54.6875 
L 18.109375 46.1875 
Q 21.34375 51.125 25.703125 53.5625 
Q 30.078125 56 35.796875 56 
Q 45.21875 56 50.046875 50.171875 
Q 54.890625 44.34375 54.890625 33.015625 
z
" id="DejaVuSans-110"/>
       <path d="M 45.40625 27.984375 
Q 45.40625 37.75 41.375 43.109375 
Q 37.359375 48.484375 30.078125 48.484375 
Q 22.859375 48.484375 18.828125 43.109375 
Q 14.796875 37.75 14.796875 27.984375 
Q 14.796875 18.265625 18.828125 12.890625 
Q 22.859375 7.515625 30.078125 7.515625 
Q 37.359375 7.515625 41.375 12.890625 
Q 45.40625 18.265625 45.40625 27.984375 
z
M 54.390625 6.78125 
Q 54.390625 -7.171875 48.1875 -13.984375 
Q 42 -20.796875 29.203125 -20.796875 
Q 24.46875 -20.796875 20.265625 -20.09375 
Q 16.0625 -19.390625 12.109375 -17.921875 
L 12.109375 -9.1875 
Q 16.0625 -11.328125 19.921875 -12.34375 
Q 23.78125 -13.375 27.78125 -13.375 
Q 36.625 -13.375 41.015625 -8.765625 
Q 45.40625 -4.15625 45.40625 5.171875 
L 45.40625 9.625 
Q 42.625 4.78125 38.28125 2.390625 
Q 33.9375 0 27.875 0 
Q 17.828125 0 11.671875 7.65625 
Q 5.515625 15.328125 5.515625 27.984375 
Q 5.515625 40.671875 11.671875 48.328125 
Q 17.828125 56 27.875 56 
Q 33.9375 56 38.28125 53.609375 
Q 42.625 51.21875 45.40625 46.390625 
L 45.40625 54.6875 
L 54.390625 54.6875 
z
" id="DejaVuSans-103"/>
       <path d="M 9.421875 75.984375 
L 18.40625 75.984375 
L 18.40625 0 
L 9.421875 0 
z
" id="DejaVuSans-108"/>
       <path d="M 9.421875 54.6875 
L 18.40625 54.6875 
L 18.40625 0 
L 9.421875 0 
z
M 9.421875 75.984375 
L 18.40625 75.984375 
L 18.40625 64.59375 
L 9.421875 64.59375 
z
" id="DejaVuSans-105"/>
       <path d="M 44.28125 53.078125 
L 44.28125 44.578125 
Q 40.484375 46.53125 36.375 47.5 
Q 32.28125 48.484375 27.875 48.484375 
Q 21.1875 48.484375 17.84375 46.4375 
Q 14.5 44.390625 14.5 40.28125 
Q 14.5 37.15625 16.890625 35.375 
Q 19.28125 33.59375 26.515625 31.984375 
L 29.59375 31.296875 
Q 39.15625 29.25 43.1875 25.515625 
Q 47.21875 21.78125 47.21875 15.09375 
Q 47.21875 7.46875 41.1875 3.015625 
Q 35.15625 -1.421875 24.609375 -1.421875 
Q 20.21875 -1.421875 15.453125 -0.5625 
Q 10.6875 0.296875 5.421875 2 
L 5.421875 11.28125 
Q 10.40625 8.6875 15.234375 7.390625 
Q 20.0625 6.109375 24.8125 6.109375 
Q 31.15625 6.109375 34.5625 8.28125 
Q 37.984375 10.453125 37.984375 14.40625 
Q 37.984375 18.0625 35.515625 20.015625 
Q 33.0625 21.96875 24.703125 23.78125 
L 21.578125 24.515625 
Q 13.234375 26.265625 9.515625 29.90625 
Q 5.8125 33.546875 5.8125 39.890625 
Q 5.8125 47.609375 11.28125 51.796875 
Q 16.75 56 26.8125 56 
Q 31.78125 56 36.171875 55.265625 
Q 40.578125 54.546875 44.28125 53.078125 
z
" id="DejaVuSans-115"/>
       <path d="M 54.890625 33.015625 
L 54.890625 0 
L 45.90625 0 
L 45.90625 32.71875 
Q 45.90625 40.484375 42.875 44.328125 
Q 39.84375 48.1875 33.796875 48.1875 
Q 26.515625 48.1875 22.3125 43.546875 
Q 18.109375 38.921875 18.109375 30.90625 
L 18.109375 0 
L 9.078125 0 
L 9.078125 75.984375 
L 18.109375 75.984375 
L 18.109375 46.1875 
Q 21.34375 51.125 25.703125 53.5625 
Q 30.078125 56 35.796875 56 
Q 45.21875 56 50.046875 50.171875 
Q 54.890625 44.34375 54.890625 33.015625 
z
" id="DejaVuSans-104"/>
       <path d="M 30.609375 48.390625 
Q 23.390625 48.390625 19.1875 42.75 
Q 14.984375 37.109375 14.984375 27.296875 
Q 14.984375 17.484375 19.15625 11.84375 
Q 23.34375 6.203125 30.609375 6.203125 
Q 37.796875 6.203125 41.984375 11.859375 
Q 46.1875 17.53125 46.1875 27.296875 
Q 46.1875 37.015625 41.984375 42.703125 
Q 37.796875 48.390625 30.609375 48.390625 
z
M 30.609375 56 
Q 42.328125 56 49.015625 48.375 
Q 55.71875 40.765625 55.71875 27.296875 
Q 55.71875 13.875 49.015625 6.21875 
Q 42.328125 -1.421875 30.609375 -1.421875 
Q 18.84375 -1.421875 12.171875 6.21875 
Q 5.515625 13.875 5.515625 27.296875 
Q 5.515625 40.765625 12.171875 48.375 
Q 18.84375 56 30.609375 56 
z
" id="DejaVuSans-111"/>
       <path d="M 52 44.1875 
Q 55.375 50.25 60.0625 53.125 
Q 64.75 56 71.09375 56 
Q 79.640625 56 84.28125 50.015625 
Q 88.921875 44.046875 88.921875 33.015625 
L 88.921875 0 
L 79.890625 0 
L 79.890625 32.71875 
Q 79.890625 40.578125 77.09375 44.375 
Q 74.3125 48.1875 68.609375 48.1875 
Q 61.625 48.1875 57.5625 43.546875 
Q 53.515625 38.921875 53.515625 30.90625 
L 53.515625 0 
L 44.484375 0 
L 44.484375 32.71875 
Q 44.484375 40.625 41.703125 44.40625 
Q 38.921875 48.1875 33.109375 48.1875 
Q 26.21875 48.1875 22.15625 43.53125 
Q 18.109375 38.875 18.109375 30.90625 
L 18.109375 0 
L 9.078125 0 
L 9.078125 54.6875 
L 18.109375 54.6875 
L 18.109375 46.1875 
Q 21.1875 51.21875 25.484375 53.609375 
Q 29.78125 56 35.6875 56 
Q 41.65625 56 45.828125 52.96875 
Q 50 49.953125 52 44.1875 
z
" id="DejaVuSans-109"/>
       <path d="M 18.109375 8.203125 
L 18.109375 -20.796875 
L 9.078125 -20.796875 
L 9.078125 54.6875 
L 18.109375 54.6875 
L 18.109375 46.390625 
Q 20.953125 51.265625 25.265625 53.625 
Q 29.59375 56 35.59375 56 
Q 45.5625 56 51.78125 48.09375 
Q 58.015625 40.1875 58.015625 27.296875 
Q 58.015625 14.40625 51.78125 6.484375 
Q 45.5625 -1.421875 35.59375 -1.421875 
Q 29.59375 -1.421875 25.265625 0.953125 
Q 20.953125 3.328125 18.109375 8.203125 
z
M 48.6875 27.296875 
Q 48.6875 37.203125 44.609375 42.84375 
Q 40.53125 48.484375 33.40625 48.484375 
Q 26.265625 48.484375 22.1875 42.84375 
Q 18.109375 37.203125 18.109375 27.296875 
Q 18.109375 17.390625 22.1875 11.75 
Q 26.265625 6.109375 33.40625 6.109375 
Q 40.53125 6.109375 44.609375 11.75 
Q 48.6875 17.390625 48.6875 27.296875 
z
" id="DejaVuSans-112"/>
       <path d="M 18.3125 70.21875 
L 18.3125 54.6875 
L 36.8125 54.6875 
L 36.8125 47.703125 
L 18.3125 47.703125 
L 18.3125 18.015625 
Q 18.3125 11.328125 20.140625 9.421875 
Q 21.96875 7.515625 27.59375 7.515625 
L 36.8125 7.515625 
L 36.8125 0 
L 27.59375 0 
Q 17.1875 0 13.234375 3.875 
Q 9.28125 7.765625 9.28125 18.015625 
L 9.28125 47.703125 
L 2.6875 47.703125 
L 2.6875 54.6875 
L 9.28125 54.6875 
L 9.28125 70.21875 
z
" id="DejaVuSans-116"/>
       <path d="M 9.8125 72.90625 
L 19.671875 72.90625 
L 19.671875 0 
L 9.8125 0 
z
" id="DejaVuSans-73"/>
       <path d="M 19.671875 34.8125 
L 19.671875 8.109375 
L 35.5 8.109375 
Q 43.453125 8.109375 47.28125 11.40625 
Q 51.125 14.703125 51.125 21.484375 
Q 51.125 28.328125 47.28125 31.5625 
Q 43.453125 34.8125 35.5 34.8125 
z
M 19.671875 64.796875 
L 19.671875 42.828125 
L 34.28125 42.828125 
Q 41.5 42.828125 45.03125 45.53125 
Q 48.578125 48.25 48.578125 53.8125 
Q 48.578125 59.328125 45.03125 62.0625 
Q 41.5 64.796875 34.28125 64.796875 
z
M 9.8125 72.90625 
L 35.015625 72.90625 
Q 46.296875 72.90625 52.390625 68.21875 
Q 58.5 63.53125 58.5 54.890625 
Q 58.5 48.1875 55.375 44.234375 
Q 52.25 40.28125 46.1875 39.3125 
Q 53.46875 37.75 57.5 32.78125 
Q 61.53125 27.828125 61.53125 20.40625 
Q 61.53125 10.640625 54.890625 5.3125 
Q 48.25 0 35.984375 0 
L 9.8125 0 
z
" id="DejaVuSans-66"/>
       <path d="M 10.796875 72.90625 
L 49.515625 72.90625 
L 49.515625 64.59375 
L 19.828125 64.59375 
L 19.828125 46.734375 
Q 21.96875 47.46875 24.109375 47.828125 
Q 26.265625 48.1875 28.421875 48.1875 
Q 40.625 48.1875 47.75 41.5 
Q 54.890625 34.8125 54.890625 23.390625 
Q 54.890625 11.625 47.5625 5.09375 
Q 40.234375 -1.421875 26.90625 -1.421875 
Q 22.3125 -1.421875 17.546875 -0.640625 
Q 12.796875 0.140625 7.71875 1.703125 
L 7.71875 11.625 
Q 12.109375 9.234375 16.796875 8.0625 
Q 21.484375 6.890625 26.703125 6.890625 
Q 35.15625 6.890625 40.078125 11.328125 
Q 45.015625 15.765625 45.015625 23.390625 
Q 45.015625 31 40.078125 35.4375 
Q 35.15625 39.890625 26.703125 39.890625 
Q 22.75 39.890625 18.8125 39.015625 
Q 14.890625 38.140625 10.796875 36.28125 
z
" id="DejaVuSans-53"/>
       <path d="M 3.328125 72.90625 
L 13.28125 72.90625 
L 28.609375 11.28125 
L 43.890625 72.90625 
L 54.984375 72.90625 
L 70.3125 11.28125 
L 85.59375 72.90625 
L 95.609375 72.90625 
L 77.296875 0 
L 64.890625 0 
L 49.515625 63.28125 
L 33.984375 0 
L 21.578125 0 
z
" id="DejaVuSans-87"/>
      </defs>
      <g transform="translate(120.659375 628.967188)rotate(-90)scale(0.1 -0.1)">
       <use xlink:href="#DejaVuSans-69"/>
       <use x="63.183594" xlink:href="#DejaVuSans-78"/>
       <use x="137.988281" xlink:href="#DejaVuSans-67"/>
       <use x="207.8125" xlink:href="#DejaVuSans-49"/>
       <use x="271.435547" xlink:href="#DejaVuSans-49"/>
       <use x="335.058594" xlink:href="#DejaVuSans-48"/>
       <use x="398.681641" xlink:href="#DejaVuSans-49"/>
       <use x="462.304688" xlink:href="#DejaVuSans-45"/>
       <use x="498.388672" xlink:href="#DejaVuSans-50"/>
       <use x="562.011719" xlink:href="#DejaVuSans-48"/>
       <use x="625.634766" xlink:href="#DejaVuSans-49"/>
       <use x="689.257812" xlink:href="#DejaVuSans-57"/>
       <use x="752.880859" xlink:href="#DejaVuSans-49"/>
       <use x="816.503906" xlink:href="#DejaVuSans-45"/>
       <use x="852.587891" xlink:href="#DejaVuSans-50"/>
       <use x="916.210938" xlink:href="#DejaVuSans-49"/>
       <use x="979.833984" xlink:href="#DejaVuSans-45"/>
       <use x="1015.917969" xlink:href="#DejaVuSans-77"/>
       <use x="1102.197266" xlink:href="#DejaVuSans-45"/>
       <use x="1138.28125" xlink:href="#DejaVuSans-48"/>
       <use x="1201.904297" xlink:href="#DejaVuSans-49"/>
       <use x="1265.527344" xlink:href="#DejaVuSans-48"/>
       <use x="1329.150391" xlink:href="#DejaVuSans-32"/>
       <use x="1360.9375" xlink:href="#DejaVuSans-69"/>
       <use x="1424.121094" xlink:href="#DejaVuSans-110"/>
       <use x="1487.5" xlink:href="#DejaVuSans-103"/>
       <use x="1550.976562" xlink:href="#DejaVuSans-108"/>
       <use x="1578.759766" xlink:href="#DejaVuSans-105"/>
       <use x="1606.542969" xlink:href="#DejaVuSans-115"/>
       <use x="1658.642578" xlink:href="#DejaVuSans-104"/>
       <use x="1722.021484" xlink:href="#DejaVuSans-32"/>
       <use x="1753.808594" xlink:href="#DejaVuSans-67"/>
       <use x="1823.632812" xlink:href="#DejaVuSans-111"/>
       <use x="1884.814453" xlink:href="#DejaVuSans-109"/>
       <use x="1982.226562" xlink:href="#DejaVuSans-112"/>
       <use x="2045.703125" xlink:href="#DejaVuSans-111"/>
       <use x="2106.884766" xlink:href="#DejaVuSans-115"/>
       <use x="2158.984375" xlink:href="#DejaVuSans-105"/>
       <use x="2186.767578" xlink:href="#DejaVuSans-116"/>
       <use x="2225.976562" xlink:href="#DejaVuSans-105"/>
       <use x="2253.759766" xlink:href="#DejaVuSans-111"/>
       <use x="2314.941406" xlink:href="#DejaVuSans-110"/>
       <use x="2378.320312" xlink:href="#DejaVuSans-32"/>
       <use x="2410.107422" xlink:href="#DejaVuSans-73"/>
       <use x="2439.599609" xlink:href="#DejaVuSans-32"/>
       <use x="2471.386719" xlink:href="#DejaVuSans-45"/>
       <use x="2507.470703" xlink:href="#DejaVuSans-32"/>
       <use x="2539.257812" xlink:href="#DejaVuSans-66"/>
       <use x="2607.861328" xlink:href="#DejaVuSans-49"/>
       <use x="2671.484375" xlink:href="#DejaVuSans-48"/>
       <use x="2735.107422" xlink:href="#DejaVuSans-53"/>
       <use x="2798.730469" xlink:href="#DejaVuSans-32"/>
       <use x="2830.517578" xlink:href="#DejaVuSans-77"/>
       <use x="2916.796875" xlink:href="#DejaVuSans-87"/>
      </g>
     </g>
    </g>
    <g id="xtick_2">
     <g id="line2d_2">
      <g>
       <use style="stroke:#000000;stroke-width:0.8;" x="173.7" xlink:href="#md39a56a95c" y="320.4"/>
      </g>
     </g>
     <g id="text_2">
      <!-- SLS1101-20191-21-M-003 Student Success - B105 TR 01:00 PM -->
      <defs>
       <path d="M 53.515625 70.515625 
L 53.515625 60.890625 
Q 47.90625 63.578125 42.921875 64.890625 
Q 37.9375 66.21875 33.296875 66.21875 
Q 25.25 66.21875 20.875 63.09375 
Q 16.5 59.96875 16.5 54.203125 
Q 16.5 49.359375 19.40625 46.890625 
Q 22.3125 44.4375 30.421875 42.921875 
L 36.375 41.703125 
Q 47.40625 39.59375 52.65625 34.296875 
Q 57.90625 29 57.90625 20.125 
Q 57.90625 9.515625 50.796875 4.046875 
Q 43.703125 -1.421875 29.984375 -1.421875 
Q 24.8125 -1.421875 18.96875 -0.25 
Q 13.140625 0.921875 6.890625 3.21875 
L 6.890625 13.375 
Q 12.890625 10.015625 18.65625 8.296875 
Q 24.421875 6.59375 29.984375 6.59375 
Q 38.421875 6.59375 43.015625 9.90625 
Q 47.609375 13.234375 47.609375 19.390625 
Q 47.609375 24.75 44.3125 27.78125 
Q 41.015625 30.8125 33.5 32.328125 
L 27.484375 33.5 
Q 16.453125 35.6875 11.515625 40.375 
Q 6.59375 45.0625 6.59375 53.421875 
Q 6.59375 63.09375 13.40625 68.65625 
Q 20.21875 74.21875 32.171875 74.21875 
Q 37.3125 74.21875 42.625 73.28125 
Q 47.953125 72.359375 53.515625 70.515625 
z
" id="DejaVuSans-83"/>
       <path d="M 9.8125 72.90625 
L 19.671875 72.90625 
L 19.671875 8.296875 
L 55.171875 8.296875 
L 55.171875 0 
L 9.8125 0 
z
" id="DejaVuSans-76"/>
       <path d="M 40.578125 39.3125 
Q 47.65625 37.796875 51.625 33 
Q 55.609375 28.21875 55.609375 21.1875 
Q 55.609375 10.40625 48.1875 4.484375 
Q 40.765625 -1.421875 27.09375 -1.421875 
Q 22.515625 -1.421875 17.65625 -0.515625 
Q 12.796875 0.390625 7.625 2.203125 
L 7.625 11.71875 
Q 11.71875 9.328125 16.59375 8.109375 
Q 21.484375 6.890625 26.8125 6.890625 
Q 36.078125 6.890625 40.9375 10.546875 
Q 45.796875 14.203125 45.796875 21.1875 
Q 45.796875 27.640625 41.28125 31.265625 
Q 36.765625 34.90625 28.71875 34.90625 
L 20.21875 34.90625 
L 20.21875 43.015625 
L 29.109375 43.015625 
Q 36.375 43.015625 40.234375 45.921875 
Q 44.09375 48.828125 44.09375 54.296875 
Q 44.09375 59.90625 40.109375 62.90625 
Q 36.140625 65.921875 28.71875 65.921875 
Q 24.65625 65.921875 20.015625 65.03125 
Q 15.375 64.15625 9.8125 62.3125 
L 9.8125 71.09375 
Q 15.4375 72.65625 20.34375 73.4375 
Q 25.25 74.21875 29.59375 74.21875 
Q 40.828125 74.21875 47.359375 69.109375 
Q 53.90625 64.015625 53.90625 55.328125 
Q 53.90625 49.265625 50.4375 45.09375 
Q 46.96875 40.921875 40.578125 39.3125 
z
" id="DejaVuSans-51"/>
       <path d="M 8.5 21.578125 
L 8.5 54.6875 
L 17.484375 54.6875 
L 17.484375 21.921875 
Q 17.484375 14.15625 20.5 10.265625 
Q 23.53125 6.390625 29.59375 6.390625 
Q 36.859375 6.390625 41.078125 11.03125 
Q 45.3125 15.671875 45.3125 23.6875 
L 45.3125 54.6875 
L 54.296875 54.6875 
L 54.296875 0 
L 45.3125 0 
L 45.3125 8.40625 
Q 42.046875 3.421875 37.71875 1 
Q 33.40625 -1.421875 27.6875 -1.421875 
Q 18.265625 -1.421875 13.375 4.4375 
Q 8.5 10.296875 8.5 21.578125 
z
M 31.109375 56 
z
" id="DejaVuSans-117"/>
       <path d="M 45.40625 46.390625 
L 45.40625 75.984375 
L 54.390625 75.984375 
L 54.390625 0 
L 45.40625 0 
L 45.40625 8.203125 
Q 42.578125 3.328125 38.25 0.953125 
Q 33.9375 -1.421875 27.875 -1.421875 
Q 17.96875 -1.421875 11.734375 6.484375 
Q 5.515625 14.40625 5.515625 27.296875 
Q 5.515625 40.1875 11.734375 48.09375 
Q 17.96875 56 27.875 56 
Q 33.9375 56 38.25 53.625 
Q 42.578125 51.265625 45.40625 46.390625 
z
M 14.796875 27.296875 
Q 14.796875 17.390625 18.875 11.75 
Q 22.953125 6.109375 30.078125 6.109375 
Q 37.203125 6.109375 41.296875 11.75 
Q 45.40625 17.390625 45.40625 27.296875 
Q 45.40625 37.203125 41.296875 42.84375 
Q 37.203125 48.484375 30.078125 48.484375 
Q 22.953125 48.484375 18.875 42.84375 
Q 14.796875 37.203125 14.796875 27.296875 
z
" id="DejaVuSans-100"/>
       <path d="M 56.203125 29.59375 
L 56.203125 25.203125 
L 14.890625 25.203125 
Q 15.484375 15.921875 20.484375 11.0625 
Q 25.484375 6.203125 34.421875 6.203125 
Q 39.59375 6.203125 44.453125 7.46875 
Q 49.3125 8.734375 54.109375 11.28125 
L 54.109375 2.78125 
Q 49.265625 0.734375 44.1875 -0.34375 
Q 39.109375 -1.421875 33.890625 -1.421875 
Q 20.796875 -1.421875 13.15625 6.1875 
Q 5.515625 13.8125 5.515625 26.8125 
Q 5.515625 40.234375 12.765625 48.109375 
Q 20.015625 56 32.328125 56 
Q 43.359375 56 49.78125 48.890625 
Q 56.203125 41.796875 56.203125 29.59375 
z
M 47.21875 32.234375 
Q 47.125 39.59375 43.09375 43.984375 
Q 39.0625 48.390625 32.421875 48.390625 
Q 24.90625 48.390625 20.390625 44.140625 
Q 15.875 39.890625 15.1875 32.171875 
z
" id="DejaVuSans-101"/>
       <path d="M 48.78125 52.59375 
L 48.78125 44.1875 
Q 44.96875 46.296875 41.140625 47.34375 
Q 37.3125 48.390625 33.40625 48.390625 
Q 24.65625 48.390625 19.8125 42.84375 
Q 14.984375 37.3125 14.984375 27.296875 
Q 14.984375 17.28125 19.8125 11.734375 
Q 24.65625 6.203125 33.40625 6.203125 
Q 37.3125 6.203125 41.140625 7.25 
Q 44.96875 8.296875 48.78125 10.40625 
L 48.78125 2.09375 
Q 45.015625 0.34375 40.984375 -0.53125 
Q 36.96875 -1.421875 32.421875 -1.421875 
Q 20.0625 -1.421875 12.78125 6.34375 
Q 5.515625 14.109375 5.515625 27.296875 
Q 5.515625 40.671875 12.859375 48.328125 
Q 20.21875 56 33.015625 56 
Q 37.15625 56 41.109375 55.140625 
Q 45.0625 54.296875 48.78125 52.59375 
z
" id="DejaVuSans-99"/>
       <path d="M -0.296875 72.90625 
L 61.375 72.90625 
L 61.375 64.59375 
L 35.5 64.59375 
L 35.5 0 
L 25.59375 0 
L 25.59375 64.59375 
L -0.296875 64.59375 
z
" id="DejaVuSans-84"/>
       <path d="M 44.390625 34.1875 
Q 47.5625 33.109375 50.5625 29.59375 
Q 53.5625 26.078125 56.59375 19.921875 
L 66.609375 0 
L 56 0 
L 46.6875 18.703125 
Q 43.0625 26.03125 39.671875 28.421875 
Q 36.28125 30.8125 30.421875 30.8125 
L 19.671875 30.8125 
L 19.671875 0 
L 9.8125 0 
L 9.8125 72.90625 
L 32.078125 72.90625 
Q 44.578125 72.90625 50.734375 67.671875 
Q 56.890625 62.453125 56.890625 51.90625 
Q 56.890625 45.015625 53.6875 40.46875 
Q 50.484375 35.9375 44.390625 34.1875 
z
M 19.671875 64.796875 
L 19.671875 38.921875 
L 32.078125 38.921875 
Q 39.203125 38.921875 42.84375 42.21875 
Q 46.484375 45.515625 46.484375 51.90625 
Q 46.484375 58.296875 42.84375 61.546875 
Q 39.203125 64.796875 32.078125 64.796875 
z
" id="DejaVuSans-82"/>
       <path d="M 11.71875 12.40625 
L 22.015625 12.40625 
L 22.015625 0 
L 11.71875 0 
z
M 11.71875 51.703125 
L 22.015625 51.703125 
L 22.015625 39.3125 
L 11.71875 39.3125 
z
" id="DejaVuSans-58"/>
       <path d="M 19.671875 64.796875 
L 19.671875 37.40625 
L 32.078125 37.40625 
Q 38.96875 37.40625 42.71875 40.96875 
Q 46.484375 44.53125 46.484375 51.125 
Q 46.484375 57.671875 42.71875 61.234375 
Q 38.96875 64.796875 32.078125 64.796875 
z
M 9.8125 72.90625 
L 32.078125 72.90625 
Q 44.34375 72.90625 50.609375 67.359375 
Q 56.890625 61.8125 56.890625 51.125 
Q 56.890625 40.328125 50.609375 34.8125 
Q 44.34375 29.296875 32.078125 29.296875 
L 19.671875 29.296875 
L 19.671875 0 
L 9.8125 0 
z
" id="DejaVuSans-80"/>
      </defs>
      <g transform="translate(176.459375 645.759375)rotate(-90)scale(0.1 -0.1)">
       <use xlink:href="#DejaVuSans-83"/>
       <use x="63.476562" xlink:href="#DejaVuSans-76"/>
       <use x="119.189453" xlink:href="#DejaVuSans-83"/>
       <use x="182.666016" xlink:href="#DejaVuSans-49"/>
       <use x="246.289062" xlink:href="#DejaVuSans-49"/>
       <use x="309.912109" xlink:href="#DejaVuSans-48"/>
       <use x="373.535156" xlink:href="#DejaVuSans-49"/>
       <use x="437.158203" xlink:href="#DejaVuSans-45"/>
       <use x="473.242188" xlink:href="#DejaVuSans-50"/>
       <use x="536.865234" xlink:href="#DejaVuSans-48"/>
       <use x="600.488281" xlink:href="#DejaVuSans-49"/>
       <use x="664.111328" xlink:href="#DejaVuSans-57"/>
       <use x="727.734375" xlink:href="#DejaVuSans-49"/>
       <use x="791.357422" xlink:href="#DejaVuSans-45"/>
       <use x="827.441406" xlink:href="#DejaVuSans-50"/>
       <use x="891.064453" xlink:href="#DejaVuSans-49"/>
       <use x="954.6875" xlink:href="#DejaVuSans-45"/>
       <use x="990.771484" xlink:href="#DejaVuSans-77"/>
       <use x="1077.050781" xlink:href="#DejaVuSans-45"/>
       <use x="1113.134766" xlink:href="#DejaVuSans-48"/>
       <use x="1176.757812" xlink:href="#DejaVuSans-48"/>
       <use x="1240.380859" xlink:href="#DejaVuSans-51"/>
       <use x="1304.003906" xlink:href="#DejaVuSans-32"/>
       <use x="1335.791016" xlink:href="#DejaVuSans-83"/>
       <use x="1399.267578" xlink:href="#DejaVuSans-116"/>
       <use x="1438.476562" xlink:href="#DejaVuSans-117"/>
       <use x="1501.855469" xlink:href="#DejaVuSans-100"/>
       <use x="1565.332031" xlink:href="#DejaVuSans-101"/>
       <use x="1626.855469" xlink:href="#DejaVuSans-110"/>
       <use x="1690.234375" xlink:href="#DejaVuSans-116"/>
       <use x="1729.443359" xlink:href="#DejaVuSans-32"/>
       <use x="1761.230469" xlink:href="#DejaVuSans-83"/>
       <use x="1824.707031" xlink:href="#DejaVuSans-117"/>
       <use x="1888.085938" xlink:href="#DejaVuSans-99"/>
       <use x="1943.066406" xlink:href="#DejaVuSans-99"/>
       <use x="1998.046875" xlink:href="#DejaVuSans-101"/>
       <use x="2059.570312" xlink:href="#DejaVuSans-115"/>
       <use x="2111.669922" xlink:href="#DejaVuSans-115"/>
       <use x="2163.769531" xlink:href="#DejaVuSans-32"/>
       <use x="2195.556641" xlink:href="#DejaVuSans-45"/>
       <use x="2231.640625" xlink:href="#DejaVuSans-32"/>
       <use x="2263.427734" xlink:href="#DejaVuSans-66"/>
       <use x="2332.03125" xlink:href="#DejaVuSans-49"/>
       <use x="2395.654297" xlink:href="#DejaVuSans-48"/>
       <use x="2459.277344" xlink:href="#DejaVuSans-53"/>
       <use x="2522.900391" xlink:href="#DejaVuSans-32"/>
       <use x="2554.6875" xlink:href="#DejaVuSans-84"/>
       <use x="2615.771484" xlink:href="#DejaVuSans-82"/>
       <use x="2685.253906" xlink:href="#DejaVuSans-32"/>
       <use x="2717.041016" xlink:href="#DejaVuSans-48"/>
       <use x="2780.664062" xlink:href="#DejaVuSans-49"/>
       <use x="2844.287109" xlink:href="#DejaVuSans-58"/>
       <use x="2877.978516" xlink:href="#DejaVuSans-48"/>
       <use x="2941.601562" xlink:href="#DejaVuSans-48"/>
       <use x="3005.224609" xlink:href="#DejaVuSans-32"/>
       <use x="3037.011719" xlink:href="#DejaVuSans-80"/>
       <use x="3097.314453" xlink:href="#DejaVuSans-77"/>
      </g>
     </g>
    </g>
    <g id="xtick_3">
     <g id="line2d_3">
      <g>
       <use style="stroke:#000000;stroke-width:0.8;" x="229.5" xlink:href="#md39a56a95c" y="320.4"/>
      </g>
     </g>
     <g id="text_3">
      <!-- Vero Campus B126 TR -->
      <defs>
       <path d="M 28.609375 0 
L 0.78125 72.90625 
L 11.078125 72.90625 
L 34.1875 11.53125 
L 57.328125 72.90625 
L 67.578125 72.90625 
L 39.796875 0 
z
" id="DejaVuSans-86"/>
       <path d="M 41.109375 46.296875 
Q 39.59375 47.171875 37.8125 47.578125 
Q 36.03125 48 33.890625 48 
Q 26.265625 48 22.1875 43.046875 
Q 18.109375 38.09375 18.109375 28.8125 
L 18.109375 0 
L 9.078125 0 
L 9.078125 54.6875 
L 18.109375 54.6875 
L 18.109375 46.1875 
Q 20.953125 51.171875 25.484375 53.578125 
Q 30.03125 56 36.53125 56 
Q 37.453125 56 38.578125 55.875 
Q 39.703125 55.765625 41.0625 55.515625 
z
" id="DejaVuSans-114"/>
       <path d="M 34.28125 27.484375 
Q 23.390625 27.484375 19.1875 25 
Q 14.984375 22.515625 14.984375 16.5 
Q 14.984375 11.71875 18.140625 8.90625 
Q 21.296875 6.109375 26.703125 6.109375 
Q 34.1875 6.109375 38.703125 11.40625 
Q 43.21875 16.703125 43.21875 25.484375 
L 43.21875 27.484375 
z
M 52.203125 31.203125 
L 52.203125 0 
L 43.21875 0 
L 43.21875 8.296875 
Q 40.140625 3.328125 35.546875 0.953125 
Q 30.953125 -1.421875 24.3125 -1.421875 
Q 15.921875 -1.421875 10.953125 3.296875 
Q 6 8.015625 6 15.921875 
Q 6 25.140625 12.171875 29.828125 
Q 18.359375 34.515625 30.609375 34.515625 
L 43.21875 34.515625 
L 43.21875 35.40625 
Q 43.21875 41.609375 39.140625 45 
Q 35.0625 48.390625 27.6875 48.390625 
Q 23 48.390625 18.546875 47.265625 
Q 14.109375 46.140625 10.015625 43.890625 
L 10.015625 52.203125 
Q 14.9375 54.109375 19.578125 55.046875 
Q 24.21875 56 28.609375 56 
Q 40.484375 56 46.34375 49.84375 
Q 52.203125 43.703125 52.203125 31.203125 
z
" id="DejaVuSans-97"/>
       <path d="M 33.015625 40.375 
Q 26.375 40.375 22.484375 35.828125 
Q 18.609375 31.296875 18.609375 23.390625 
Q 18.609375 15.53125 22.484375 10.953125 
Q 26.375 6.390625 33.015625 6.390625 
Q 39.65625 6.390625 43.53125 10.953125 
Q 47.40625 15.53125 47.40625 23.390625 
Q 47.40625 31.296875 43.53125 35.828125 
Q 39.65625 40.375 33.015625 40.375 
z
M 52.59375 71.296875 
L 52.59375 62.3125 
Q 48.875 64.0625 45.09375 64.984375 
Q 41.3125 65.921875 37.59375 65.921875 
Q 27.828125 65.921875 22.671875 59.328125 
Q 17.53125 52.734375 16.796875 39.40625 
Q 19.671875 43.65625 24.015625 45.921875 
Q 28.375 48.1875 33.59375 48.1875 
Q 44.578125 48.1875 50.953125 41.515625 
Q 57.328125 34.859375 57.328125 23.390625 
Q 57.328125 12.15625 50.6875 5.359375 
Q 44.046875 -1.421875 33.015625 -1.421875 
Q 20.359375 -1.421875 13.671875 8.265625 
Q 6.984375 17.96875 6.984375 36.375 
Q 6.984375 53.65625 15.1875 63.9375 
Q 23.390625 74.21875 37.203125 74.21875 
Q 40.921875 74.21875 44.703125 73.484375 
Q 48.484375 72.75 52.59375 71.296875 
z
" id="DejaVuSans-54"/>
      </defs>
      <g transform="translate(232.259375 439.895313)rotate(-90)scale(0.1 -0.1)">
       <use xlink:href="#DejaVuSans-86"/>
       <use x="68.298828" xlink:href="#DejaVuSans-101"/>
       <use x="129.822266" xlink:href="#DejaVuSans-114"/>
       <use x="170.904297" xlink:href="#DejaVuSans-111"/>
       <use x="232.085938" xlink:href="#DejaVuSans-32"/>
       <use x="263.873047" xlink:href="#DejaVuSans-67"/>
       <use x="333.697266" xlink:href="#DejaVuSans-97"/>
       <use x="394.976562" xlink:href="#DejaVuSans-109"/>
       <use x="492.388672" xlink:href="#DejaVuSans-112"/>
       <use x="555.865234" xlink:href="#DejaVuSans-117"/>
       <use x="619.244141" xlink:href="#DejaVuSans-115"/>
       <use x="671.34375" xlink:href="#DejaVuSans-32"/>
       <use x="703.130859" xlink:href="#DejaVuSans-66"/>
       <use x="771.734375" xlink:href="#DejaVuSans-49"/>
       <use x="835.357422" xlink:href="#DejaVuSans-50"/>
       <use x="898.980469" xlink:href="#DejaVuSans-54"/>
       <use x="962.603516" xlink:href="#DejaVuSans-32"/>
       <use x="994.390625" xlink:href="#DejaVuSans-84"/>
       <use x="1055.474609" xlink:href="#DejaVuSans-82"/>
      </g>
     </g>
    </g>
    <g id="xtick_4">
     <g id="line2d_4">
      <g>
       <use style="stroke:#000000;stroke-width:0.8;" x="285.3" xlink:href="#md39a56a95c" y="320.4"/>
      </g>
     </g>
     <g id="text_4">
      <!-- BSC2010L-20192-21-M-002 General Biology I Lab - D204 W 03:30 PM -->
      <defs>
       <path d="M 59.515625 10.40625 
L 59.515625 29.984375 
L 43.40625 29.984375 
L 43.40625 38.09375 
L 69.28125 38.09375 
L 69.28125 6.78125 
Q 63.578125 2.734375 56.6875 0.65625 
Q 49.8125 -1.421875 42 -1.421875 
Q 24.90625 -1.421875 15.25 8.5625 
Q 5.609375 18.5625 5.609375 36.375 
Q 5.609375 54.25 15.25 64.234375 
Q 24.90625 74.21875 42 74.21875 
Q 49.125 74.21875 55.546875 72.453125 
Q 61.96875 70.703125 67.390625 67.28125 
L 67.390625 56.78125 
Q 61.921875 61.421875 55.765625 63.765625 
Q 49.609375 66.109375 42.828125 66.109375 
Q 29.4375 66.109375 22.71875 58.640625 
Q 16.015625 51.171875 16.015625 36.375 
Q 16.015625 21.625 22.71875 14.15625 
Q 29.4375 6.6875 42.828125 6.6875 
Q 48.046875 6.6875 52.140625 7.59375 
Q 56.25 8.5 59.515625 10.40625 
z
" id="DejaVuSans-71"/>
       <path d="M 32.171875 -5.078125 
Q 28.375 -14.84375 24.75 -17.8125 
Q 21.140625 -20.796875 15.09375 -20.796875 
L 7.90625 -20.796875 
L 7.90625 -13.28125 
L 13.1875 -13.28125 
Q 16.890625 -13.28125 18.9375 -11.515625 
Q 21 -9.765625 23.484375 -3.21875 
L 25.09375 0.875 
L 2.984375 54.6875 
L 12.5 54.6875 
L 29.59375 11.921875 
L 46.6875 54.6875 
L 56.203125 54.6875 
z
" id="DejaVuSans-121"/>
       <path d="M 48.6875 27.296875 
Q 48.6875 37.203125 44.609375 42.84375 
Q 40.53125 48.484375 33.40625 48.484375 
Q 26.265625 48.484375 22.1875 42.84375 
Q 18.109375 37.203125 18.109375 27.296875 
Q 18.109375 17.390625 22.1875 11.75 
Q 26.265625 6.109375 33.40625 6.109375 
Q 40.53125 6.109375 44.609375 11.75 
Q 48.6875 17.390625 48.6875 27.296875 
z
M 18.109375 46.390625 
Q 20.953125 51.265625 25.265625 53.625 
Q 29.59375 56 35.59375 56 
Q 45.5625 56 51.78125 48.09375 
Q 58.015625 40.1875 58.015625 27.296875 
Q 58.015625 14.40625 51.78125 6.484375 
Q 45.5625 -1.421875 35.59375 -1.421875 
Q 29.59375 -1.421875 25.265625 0.953125 
Q 20.953125 3.328125 18.109375 8.203125 
L 18.109375 0 
L 9.078125 0 
L 9.078125 75.984375 
L 18.109375 75.984375 
z
" id="DejaVuSans-98"/>
       <path d="M 19.671875 64.796875 
L 19.671875 8.109375 
L 31.59375 8.109375 
Q 46.6875 8.109375 53.6875 14.9375 
Q 60.6875 21.78125 60.6875 36.53125 
Q 60.6875 51.171875 53.6875 57.984375 
Q 46.6875 64.796875 31.59375 64.796875 
z
M 9.8125 72.90625 
L 30.078125 72.90625 
Q 51.265625 72.90625 61.171875 64.09375 
Q 71.09375 55.28125 71.09375 36.53125 
Q 71.09375 17.671875 61.125 8.828125 
Q 51.171875 0 30.078125 0 
L 9.8125 0 
z
" id="DejaVuSans-68"/>
       <path d="M 37.796875 64.3125 
L 12.890625 25.390625 
L 37.796875 25.390625 
z
M 35.203125 72.90625 
L 47.609375 72.90625 
L 47.609375 25.390625 
L 58.015625 25.390625 
L 58.015625 17.1875 
L 47.609375 17.1875 
L 47.609375 0 
L 37.796875 0 
L 37.796875 17.1875 
L 4.890625 17.1875 
L 4.890625 26.703125 
z
" id="DejaVuSans-52"/>
      </defs>
      <g transform="translate(288.059375 674.9875)rotate(-90)scale(0.1 -0.1)">
       <use xlink:href="#DejaVuSans-66"/>
       <use x="68.587891" xlink:href="#DejaVuSans-83"/>
       <use x="132.064453" xlink:href="#DejaVuSans-67"/>
       <use x="201.888672" xlink:href="#DejaVuSans-50"/>
       <use x="265.511719" xlink:href="#DejaVuSans-48"/>
       <use x="329.134766" xlink:href="#DejaVuSans-49"/>
       <use x="392.757812" xlink:href="#DejaVuSans-48"/>
       <use x="456.380859" xlink:href="#DejaVuSans-76"/>
       <use x="512.078125" xlink:href="#DejaVuSans-45"/>
       <use x="548.162109" xlink:href="#DejaVuSans-50"/>
       <use x="611.785156" xlink:href="#DejaVuSans-48"/>
       <use x="675.408203" xlink:href="#DejaVuSans-49"/>
       <use x="739.03125" xlink:href="#DejaVuSans-57"/>
       <use x="802.654297" xlink:href="#DejaVuSans-50"/>
       <use x="866.277344" xlink:href="#DejaVuSans-45"/>
       <use x="902.361328" xlink:href="#DejaVuSans-50"/>
       <use x="965.984375" xlink:href="#DejaVuSans-49"/>
       <use x="1029.607422" xlink:href="#DejaVuSans-45"/>
       <use x="1065.691406" xlink:href="#DejaVuSans-77"/>
       <use x="1151.970703" xlink:href="#DejaVuSans-45"/>
       <use x="1188.054688" xlink:href="#DejaVuSans-48"/>
       <use x="1251.677734" xlink:href="#DejaVuSans-48"/>
       <use x="1315.300781" xlink:href="#DejaVuSans-50"/>
       <use x="1378.923828" xlink:href="#DejaVuSans-32"/>
       <use x="1410.710938" xlink:href="#DejaVuSans-71"/>
       <use x="1488.201172" xlink:href="#DejaVuSans-101"/>
       <use x="1549.724609" xlink:href="#DejaVuSans-110"/>
       <use x="1613.103516" xlink:href="#DejaVuSans-101"/>
       <use x="1674.626953" xlink:href="#DejaVuSans-114"/>
       <use x="1715.740234" xlink:href="#DejaVuSans-97"/>
       <use x="1777.019531" xlink:href="#DejaVuSans-108"/>
       <use x="1804.802734" xlink:href="#DejaVuSans-32"/>
       <use x="1836.589844" xlink:href="#DejaVuSans-66"/>
       <use x="1905.193359" xlink:href="#DejaVuSans-105"/>
       <use x="1932.976562" xlink:href="#DejaVuSans-111"/>
       <use x="1994.158203" xlink:href="#DejaVuSans-108"/>
       <use x="2021.941406" xlink:href="#DejaVuSans-111"/>
       <use x="2083.123047" xlink:href="#DejaVuSans-103"/>
       <use x="2146.599609" xlink:href="#DejaVuSans-121"/>
       <use x="2205.779297" xlink:href="#DejaVuSans-32"/>
       <use x="2237.566406" xlink:href="#DejaVuSans-73"/>
       <use x="2267.058594" xlink:href="#DejaVuSans-32"/>
       <use x="2298.845703" xlink:href="#DejaVuSans-76"/>
       <use x="2354.558594" xlink:href="#DejaVuSans-97"/>
       <use x="2415.837891" xlink:href="#DejaVuSans-98"/>
       <use x="2479.314453" xlink:href="#DejaVuSans-32"/>
       <use x="2511.101562" xlink:href="#DejaVuSans-45"/>
       <use x="2547.185547" xlink:href="#DejaVuSans-32"/>
       <use x="2578.972656" xlink:href="#DejaVuSans-68"/>
       <use x="2655.974609" xlink:href="#DejaVuSans-50"/>
       <use x="2719.597656" xlink:href="#DejaVuSans-48"/>
       <use x="2783.220703" xlink:href="#DejaVuSans-52"/>
       <use x="2846.84375" xlink:href="#DejaVuSans-32"/>
       <use x="2878.630859" xlink:href="#DejaVuSans-87"/>
       <use x="2977.507812" xlink:href="#DejaVuSans-32"/>
       <use x="3009.294922" xlink:href="#DejaVuSans-48"/>
       <use x="3072.917969" xlink:href="#DejaVuSans-51"/>
       <use x="3136.541016" xlink:href="#DejaVuSans-58"/>
       <use x="3170.232422" xlink:href="#DejaVuSans-51"/>
       <use x="3233.855469" xlink:href="#DejaVuSans-48"/>
       <use x="3297.478516" xlink:href="#DejaVuSans-32"/>
       <use x="3329.265625" xlink:href="#DejaVuSans-80"/>
       <use x="3389.568359" xlink:href="#DejaVuSans-77"/>
      </g>
     </g>
    </g>
    <g id="xtick_5">
     <g id="line2d_5">
      <g>
       <use style="stroke:#000000;stroke-width:0.8;" x="341.1" xlink:href="#md39a56a95c" y="320.4"/>
      </g>
     </g>
     <g id="text_5">
      <!-- MAT1033-20191-21-M-003 Intermediate Algebra - A101 MTWR 11:00 AM -->
      <defs>
       <path d="M 34.1875 63.1875 
L 20.796875 26.90625 
L 47.609375 26.90625 
z
M 28.609375 72.90625 
L 39.796875 72.90625 
L 67.578125 0 
L 57.328125 0 
L 50.6875 18.703125 
L 17.828125 18.703125 
L 11.1875 0 
L 0.78125 0 
z
" id="DejaVuSans-65"/>
      </defs>
      <g transform="translate(343.859375 692.142187)rotate(-90)scale(0.1 -0.1)">
       <use xlink:href="#DejaVuSans-77"/>
       <use x="86.279297" xlink:href="#DejaVuSans-65"/>
       <use x="154.578125" xlink:href="#DejaVuSans-84"/>
       <use x="215.662109" xlink:href="#DejaVuSans-49"/>
       <use x="279.285156" xlink:href="#DejaVuSans-48"/>
       <use x="342.908203" xlink:href="#DejaVuSans-51"/>
       <use x="406.53125" xlink:href="#DejaVuSans-51"/>
       <use x="470.154297" xlink:href="#DejaVuSans-45"/>
       <use x="506.238281" xlink:href="#DejaVuSans-50"/>
       <use x="569.861328" xlink:href="#DejaVuSans-48"/>
       <use x="633.484375" xlink:href="#DejaVuSans-49"/>
       <use x="697.107422" xlink:href="#DejaVuSans-57"/>
       <use x="760.730469" xlink:href="#DejaVuSans-49"/>
       <use x="824.353516" xlink:href="#DejaVuSans-45"/>
       <use x="860.4375" xlink:href="#DejaVuSans-50"/>
       <use x="924.060547" xlink:href="#DejaVuSans-49"/>
       <use x="987.683594" xlink:href="#DejaVuSans-45"/>
       <use x="1023.767578" xlink:href="#DejaVuSans-77"/>
       <use x="1110.046875" xlink:href="#DejaVuSans-45"/>
       <use x="1146.130859" xlink:href="#DejaVuSans-48"/>
       <use x="1209.753906" xlink:href="#DejaVuSans-48"/>
       <use x="1273.376953" xlink:href="#DejaVuSans-51"/>
       <use x="1337" xlink:href="#DejaVuSans-32"/>
       <use x="1368.787109" xlink:href="#DejaVuSans-73"/>
       <use x="1398.279297" xlink:href="#DejaVuSans-110"/>
       <use x="1461.658203" xlink:href="#DejaVuSans-116"/>
       <use x="1500.867188" xlink:href="#DejaVuSans-101"/>
       <use x="1562.390625" xlink:href="#DejaVuSans-114"/>
       <use x="1603.488281" xlink:href="#DejaVuSans-109"/>
       <use x="1700.900391" xlink:href="#DejaVuSans-101"/>
       <use x="1762.423828" xlink:href="#DejaVuSans-100"/>
       <use x="1825.900391" xlink:href="#DejaVuSans-105"/>
       <use x="1853.683594" xlink:href="#DejaVuSans-97"/>
       <use x="1914.962891" xlink:href="#DejaVuSans-116"/>
       <use x="1954.171875" xlink:href="#DejaVuSans-101"/>
       <use x="2015.695312" xlink:href="#DejaVuSans-32"/>
       <use x="2047.482422" xlink:href="#DejaVuSans-65"/>
       <use x="2115.890625" xlink:href="#DejaVuSans-108"/>
       <use x="2143.673828" xlink:href="#DejaVuSans-103"/>
       <use x="2207.150391" xlink:href="#DejaVuSans-101"/>
       <use x="2268.673828" xlink:href="#DejaVuSans-98"/>
       <use x="2332.150391" xlink:href="#DejaVuSans-114"/>
       <use x="2373.263672" xlink:href="#DejaVuSans-97"/>
       <use x="2434.542969" xlink:href="#DejaVuSans-32"/>
       <use x="2466.330078" xlink:href="#DejaVuSans-45"/>
       <use x="2502.414062" xlink:href="#DejaVuSans-32"/>
       <use x="2534.201172" xlink:href="#DejaVuSans-65"/>
       <use x="2602.609375" xlink:href="#DejaVuSans-49"/>
       <use x="2666.232422" xlink:href="#DejaVuSans-48"/>
       <use x="2729.855469" xlink:href="#DejaVuSans-49"/>
       <use x="2793.478516" xlink:href="#DejaVuSans-32"/>
       <use x="2825.265625" xlink:href="#DejaVuSans-77"/>
       <use x="2911.544922" xlink:href="#DejaVuSans-84"/>
       <use x="2972.628906" xlink:href="#DejaVuSans-87"/>
       <use x="3071.505859" xlink:href="#DejaVuSans-82"/>
       <use x="3140.988281" xlink:href="#DejaVuSans-32"/>
       <use x="3172.775391" xlink:href="#DejaVuSans-49"/>
       <use x="3236.398438" xlink:href="#DejaVuSans-49"/>
       <use x="3300.021484" xlink:href="#DejaVuSans-58"/>
       <use x="3333.712891" xlink:href="#DejaVuSans-48"/>
       <use x="3397.335938" xlink:href="#DejaVuSans-48"/>
       <use x="3460.958984" xlink:href="#DejaVuSans-32"/>
       <use x="3492.746094" xlink:href="#DejaVuSans-65"/>
       <use x="3561.154297" xlink:href="#DejaVuSans-77"/>
      </g>
     </g>
    </g>
    <g id="xtick_6">
     <g id="line2d_6">
      <g>
       <use style="stroke:#000000;stroke-width:0.8;" x="396.9" xlink:href="#md39a56a95c" y="320.4"/>
      </g>
     </g>
     <g id="text_6">
      <!-- SLS1101-20191-21-M-004 Student Success - B104 MW 11:00 AM -->
      <g transform="translate(399.659375 652.029688)rotate(-90)scale(0.1 -0.1)">
       <use xlink:href="#DejaVuSans-83"/>
       <use x="63.476562" xlink:href="#DejaVuSans-76"/>
       <use x="119.189453" xlink:href="#DejaVuSans-83"/>
       <use x="182.666016" xlink:href="#DejaVuSans-49"/>
       <use x="246.289062" xlink:href="#DejaVuSans-49"/>
       <use x="309.912109" xlink:href="#DejaVuSans-48"/>
       <use x="373.535156" xlink:href="#DejaVuSans-49"/>
       <use x="437.158203" xlink:href="#DejaVuSans-45"/>
       <use x="473.242188" xlink:href="#DejaVuSans-50"/>
       <use x="536.865234" xlink:href="#DejaVuSans-48"/>
       <use x="600.488281" xlink:href="#DejaVuSans-49"/>
       <use x="664.111328" xlink:href="#DejaVuSans-57"/>
       <use x="727.734375" xlink:href="#DejaVuSans-49"/>
       <use x="791.357422" xlink:href="#DejaVuSans-45"/>
       <use x="827.441406" xlink:href="#DejaVuSans-50"/>
       <use x="891.064453" xlink:href="#DejaVuSans-49"/>
       <use x="954.6875" xlink:href="#DejaVuSans-45"/>
       <use x="990.771484" xlink:href="#DejaVuSans-77"/>
       <use x="1077.050781" xlink:href="#DejaVuSans-45"/>
       <use x="1113.134766" xlink:href="#DejaVuSans-48"/>
       <use x="1176.757812" xlink:href="#DejaVuSans-48"/>
       <use x="1240.380859" xlink:href="#DejaVuSans-52"/>
       <use x="1304.003906" xlink:href="#DejaVuSans-32"/>
       <use x="1335.791016" xlink:href="#DejaVuSans-83"/>
       <use x="1399.267578" xlink:href="#DejaVuSans-116"/>
       <use x="1438.476562" xlink:href="#DejaVuSans-117"/>
       <use x="1501.855469" xlink:href="#DejaVuSans-100"/>
       <use x="1565.332031" xlink:href="#DejaVuSans-101"/>
       <use x="1626.855469" xlink:href="#DejaVuSans-110"/>
       <use x="1690.234375" xlink:href="#DejaVuSans-116"/>
       <use x="1729.443359" xlink:href="#DejaVuSans-32"/>
       <use x="1761.230469" xlink:href="#DejaVuSans-83"/>
       <use x="1824.707031" xlink:href="#DejaVuSans-117"/>
       <use x="1888.085938" xlink:href="#DejaVuSans-99"/>
       <use x="1943.066406" xlink:href="#DejaVuSans-99"/>
       <use x="1998.046875" xlink:href="#DejaVuSans-101"/>
       <use x="2059.570312" xlink:href="#DejaVuSans-115"/>
       <use x="2111.669922" xlink:href="#DejaVuSans-115"/>
       <use x="2163.769531" xlink:href="#DejaVuSans-32"/>
       <use x="2195.556641" xlink:href="#DejaVuSans-45"/>
       <use x="2231.640625" xlink:href="#DejaVuSans-32"/>
       <use x="2263.427734" xlink:href="#DejaVuSans-66"/>
       <use x="2332.03125" xlink:href="#DejaVuSans-49"/>
       <use x="2395.654297" xlink:href="#DejaVuSans-48"/>
       <use x="2459.277344" xlink:href="#DejaVuSans-52"/>
       <use x="2522.900391" xlink:href="#DejaVuSans-32"/>
       <use x="2554.6875" xlink:href="#DejaVuSans-77"/>
       <use x="2640.966797" xlink:href="#DejaVuSans-87"/>
       <use x="2739.84375" xlink:href="#DejaVuSans-32"/>
       <use x="2771.630859" xlink:href="#DejaVuSans-49"/>
       <use x="2835.253906" xlink:href="#DejaVuSans-49"/>
       <use x="2898.876953" xlink:href="#DejaVuSans-58"/>
       <use x="2932.568359" xlink:href="#DejaVuSans-48"/>
       <use x="2996.191406" xlink:href="#DejaVuSans-48"/>
       <use x="3059.814453" xlink:href="#DejaVuSans-32"/>
       <use x="3091.601562" xlink:href="#DejaVuSans-65"/>
       <use x="3160.009766" xlink:href="#DejaVuSans-77"/>
      </g>
     </g>
    </g>
    <g id="xtick_7">
     <g id="line2d_7">
      <g>
       <use style="stroke:#000000;stroke-width:0.8;" x="452.7" xlink:href="#md39a56a95c" y="320.4"/>
      </g>
     </g>
     <g id="text_7">
      <!-- SYG2010-20193-21-B-001 Social Problems - A129 TR 02:45 PM -->
      <defs>
       <path d="M -0.203125 72.90625 
L 10.40625 72.90625 
L 30.609375 42.921875 
L 50.6875 72.90625 
L 61.28125 72.90625 
L 35.5 34.71875 
L 35.5 0 
L 25.59375 0 
L 25.59375 34.71875 
z
" id="DejaVuSans-89"/>
      </defs>
      <g transform="translate(455.459375 642.417188)rotate(-90)scale(0.1 -0.1)">
       <use xlink:href="#DejaVuSans-83"/>
       <use x="63.476562" xlink:href="#DejaVuSans-89"/>
       <use x="124.560547" xlink:href="#DejaVuSans-71"/>
       <use x="202.050781" xlink:href="#DejaVuSans-50"/>
       <use x="265.673828" xlink:href="#DejaVuSans-48"/>
       <use x="329.296875" xlink:href="#DejaVuSans-49"/>
       <use x="392.919922" xlink:href="#DejaVuSans-48"/>
       <use x="456.542969" xlink:href="#DejaVuSans-45"/>
       <use x="492.626953" xlink:href="#DejaVuSans-50"/>
       <use x="556.25" xlink:href="#DejaVuSans-48"/>
       <use x="619.873047" xlink:href="#DejaVuSans-49"/>
       <use x="683.496094" xlink:href="#DejaVuSans-57"/>
       <use x="747.119141" xlink:href="#DejaVuSans-51"/>
       <use x="810.742188" xlink:href="#DejaVuSans-45"/>
       <use x="846.826172" xlink:href="#DejaVuSans-50"/>
       <use x="910.449219" xlink:href="#DejaVuSans-49"/>
       <use x="974.072266" xlink:href="#DejaVuSans-45"/>
       <use x="1010.109375" xlink:href="#DejaVuSans-66"/>
       <use x="1078.712891" xlink:href="#DejaVuSans-45"/>
       <use x="1114.796875" xlink:href="#DejaVuSans-48"/>
       <use x="1178.419922" xlink:href="#DejaVuSans-48"/>
       <use x="1242.042969" xlink:href="#DejaVuSans-49"/>
       <use x="1305.666016" xlink:href="#DejaVuSans-32"/>
       <use x="1337.453125" xlink:href="#DejaVuSans-83"/>
       <use x="1400.929688" xlink:href="#DejaVuSans-111"/>
       <use x="1462.111328" xlink:href="#DejaVuSans-99"/>
       <use x="1517.091797" xlink:href="#DejaVuSans-105"/>
       <use x="1544.875" xlink:href="#DejaVuSans-97"/>
       <use x="1606.154297" xlink:href="#DejaVuSans-108"/>
       <use x="1633.9375" xlink:href="#DejaVuSans-32"/>
       <use x="1665.724609" xlink:href="#DejaVuSans-80"/>
       <use x="1726.011719" xlink:href="#DejaVuSans-114"/>
       <use x="1767.09375" xlink:href="#DejaVuSans-111"/>
       <use x="1828.275391" xlink:href="#DejaVuSans-98"/>
       <use x="1891.751953" xlink:href="#DejaVuSans-108"/>
       <use x="1919.535156" xlink:href="#DejaVuSans-101"/>
       <use x="1981.058594" xlink:href="#DejaVuSans-109"/>
       <use x="2078.470703" xlink:href="#DejaVuSans-115"/>
       <use x="2130.570312" xlink:href="#DejaVuSans-32"/>
       <use x="2162.357422" xlink:href="#DejaVuSans-45"/>
       <use x="2198.441406" xlink:href="#DejaVuSans-32"/>
       <use x="2230.228516" xlink:href="#DejaVuSans-65"/>
       <use x="2298.636719" xlink:href="#DejaVuSans-49"/>
       <use x="2362.259766" xlink:href="#DejaVuSans-50"/>
       <use x="2425.882812" xlink:href="#DejaVuSans-57"/>
       <use x="2489.505859" xlink:href="#DejaVuSans-32"/>
       <use x="2521.292969" xlink:href="#DejaVuSans-84"/>
       <use x="2582.376953" xlink:href="#DejaVuSans-82"/>
       <use x="2651.859375" xlink:href="#DejaVuSans-32"/>
       <use x="2683.646484" xlink:href="#DejaVuSans-48"/>
       <use x="2747.269531" xlink:href="#DejaVuSans-50"/>
       <use x="2810.892578" xlink:href="#DejaVuSans-58"/>
       <use x="2844.583984" xlink:href="#DejaVuSans-52"/>
       <use x="2908.207031" xlink:href="#DejaVuSans-53"/>
       <use x="2971.830078" xlink:href="#DejaVuSans-32"/>
       <use x="3003.617188" xlink:href="#DejaVuSans-80"/>
       <use x="3063.919922" xlink:href="#DejaVuSans-77"/>
      </g>
     </g>
    </g>
    <g id="xtick_8">
     <g id="line2d_8">
      <g>
       <use style="stroke:#000000;stroke-width:0.8;" x="508.5" xlink:href="#md39a56a95c" y="320.4"/>
      </g>
     </g>
     <g id="text_8">
      <!-- BSC2010-20192-21-M-002 General Biology I - D218 MW 11:00 AM -->
      <defs>
       <path d="M 31.78125 34.625 
Q 24.75 34.625 20.71875 30.859375 
Q 16.703125 27.09375 16.703125 20.515625 
Q 16.703125 13.921875 20.71875 10.15625 
Q 24.75 6.390625 31.78125 6.390625 
Q 38.8125 6.390625 42.859375 10.171875 
Q 46.921875 13.96875 46.921875 20.515625 
Q 46.921875 27.09375 42.890625 30.859375 
Q 38.875 34.625 31.78125 34.625 
z
M 21.921875 38.8125 
Q 15.578125 40.375 12.03125 44.71875 
Q 8.5 49.078125 8.5 55.328125 
Q 8.5 64.0625 14.71875 69.140625 
Q 20.953125 74.21875 31.78125 74.21875 
Q 42.671875 74.21875 48.875 69.140625 
Q 55.078125 64.0625 55.078125 55.328125 
Q 55.078125 49.078125 51.53125 44.71875 
Q 48 40.375 41.703125 38.8125 
Q 48.828125 37.15625 52.796875 32.3125 
Q 56.78125 27.484375 56.78125 20.515625 
Q 56.78125 9.90625 50.3125 4.234375 
Q 43.84375 -1.421875 31.78125 -1.421875 
Q 19.734375 -1.421875 13.25 4.234375 
Q 6.78125 9.90625 6.78125 20.515625 
Q 6.78125 27.484375 10.78125 32.3125 
Q 14.796875 37.15625 21.921875 38.8125 
z
M 18.3125 54.390625 
Q 18.3125 48.734375 21.84375 45.5625 
Q 25.390625 42.390625 31.78125 42.390625 
Q 38.140625 42.390625 41.71875 45.5625 
Q 45.3125 48.734375 45.3125 54.390625 
Q 45.3125 60.0625 41.71875 63.234375 
Q 38.140625 66.40625 31.78125 66.40625 
Q 25.390625 66.40625 21.84375 63.234375 
Q 18.3125 60.0625 18.3125 54.390625 
z
" id="DejaVuSans-56"/>
      </defs>
      <g transform="translate(511.259375 657.629688)rotate(-90)scale(0.1 -0.1)">
       <use xlink:href="#DejaVuSans-66"/>
       <use x="68.587891" xlink:href="#DejaVuSans-83"/>
       <use x="132.064453" xlink:href="#DejaVuSans-67"/>
       <use x="201.888672" xlink:href="#DejaVuSans-50"/>
       <use x="265.511719" xlink:href="#DejaVuSans-48"/>
       <use x="329.134766" xlink:href="#DejaVuSans-49"/>
       <use x="392.757812" xlink:href="#DejaVuSans-48"/>
       <use x="456.380859" xlink:href="#DejaVuSans-45"/>
       <use x="492.464844" xlink:href="#DejaVuSans-50"/>
       <use x="556.087891" xlink:href="#DejaVuSans-48"/>
       <use x="619.710938" xlink:href="#DejaVuSans-49"/>
       <use x="683.333984" xlink:href="#DejaVuSans-57"/>
       <use x="746.957031" xlink:href="#DejaVuSans-50"/>
       <use x="810.580078" xlink:href="#DejaVuSans-45"/>
       <use x="846.664062" xlink:href="#DejaVuSans-50"/>
       <use x="910.287109" xlink:href="#DejaVuSans-49"/>
       <use x="973.910156" xlink:href="#DejaVuSans-45"/>
       <use x="1009.994141" xlink:href="#DejaVuSans-77"/>
       <use x="1096.273438" xlink:href="#DejaVuSans-45"/>
       <use x="1132.357422" xlink:href="#DejaVuSans-48"/>
       <use x="1195.980469" xlink:href="#DejaVuSans-48"/>
       <use x="1259.603516" xlink:href="#DejaVuSans-50"/>
       <use x="1323.226562" xlink:href="#DejaVuSans-32"/>
       <use x="1355.013672" xlink:href="#DejaVuSans-71"/>
       <use x="1432.503906" xlink:href="#DejaVuSans-101"/>
       <use x="1494.027344" xlink:href="#DejaVuSans-110"/>
       <use x="1557.40625" xlink:href="#DejaVuSans-101"/>
       <use x="1618.929688" xlink:href="#DejaVuSans-114"/>
       <use x="1660.042969" xlink:href="#DejaVuSans-97"/>
       <use x="1721.322266" xlink:href="#DejaVuSans-108"/>
       <use x="1749.105469" xlink:href="#DejaVuSans-32"/>
       <use x="1780.892578" xlink:href="#DejaVuSans-66"/>
       <use x="1849.496094" xlink:href="#DejaVuSans-105"/>
       <use x="1877.279297" xlink:href="#DejaVuSans-111"/>
       <use x="1938.460938" xlink:href="#DejaVuSans-108"/>
       <use x="1966.244141" xlink:href="#DejaVuSans-111"/>
       <use x="2027.425781" xlink:href="#DejaVuSans-103"/>
       <use x="2090.902344" xlink:href="#DejaVuSans-121"/>
       <use x="2150.082031" xlink:href="#DejaVuSans-32"/>
       <use x="2181.869141" xlink:href="#DejaVuSans-73"/>
       <use x="2211.361328" xlink:href="#DejaVuSans-32"/>
       <use x="2243.148438" xlink:href="#DejaVuSans-45"/>
       <use x="2279.232422" xlink:href="#DejaVuSans-32"/>
       <use x="2311.019531" xlink:href="#DejaVuSans-68"/>
       <use x="2388.021484" xlink:href="#DejaVuSans-50"/>
       <use x="2451.644531" xlink:href="#DejaVuSans-49"/>
       <use x="2515.267578" xlink:href="#DejaVuSans-56"/>
       <use x="2578.890625" xlink:href="#DejaVuSans-32"/>
       <use x="2610.677734" xlink:href="#DejaVuSans-77"/>
       <use x="2696.957031" xlink:href="#DejaVuSans-87"/>
       <use x="2795.833984" xlink:href="#DejaVuSans-32"/>
       <use x="2827.621094" xlink:href="#DejaVuSans-49"/>
       <use x="2891.244141" xlink:href="#DejaVuSans-49"/>
       <use x="2954.867188" xlink:href="#DejaVuSans-58"/>
       <use x="2988.558594" xlink:href="#DejaVuSans-48"/>
       <use x="3052.181641" xlink:href="#DejaVuSans-48"/>
       <use x="3115.804688" xlink:href="#DejaVuSans-32"/>
       <use x="3147.591797" xlink:href="#DejaVuSans-65"/>
       <use x="3216" xlink:href="#DejaVuSans-77"/>
      </g>
     </g>
    </g>
    <g id="xtick_9">
     <g id="line2d_9">
      <g>
       <use style="stroke:#000000;stroke-width:0.8;" x="564.3" xlink:href="#md39a56a95c" y="320.4"/>
      </g>
     </g>
     <g id="text_9">
      <!-- PSY2012-20192-21-M-002 Introduction To Psychology - D128 MW 01:00 PM -->
      <g transform="translate(567.059375 705.08125)rotate(-90)scale(0.1 -0.1)">
       <use xlink:href="#DejaVuSans-80"/>
       <use x="60.302734" xlink:href="#DejaVuSans-83"/>
       <use x="123.779297" xlink:href="#DejaVuSans-89"/>
       <use x="184.863281" xlink:href="#DejaVuSans-50"/>
       <use x="248.486328" xlink:href="#DejaVuSans-48"/>
       <use x="312.109375" xlink:href="#DejaVuSans-49"/>
       <use x="375.732422" xlink:href="#DejaVuSans-50"/>
       <use x="439.355469" xlink:href="#DejaVuSans-45"/>
       <use x="475.439453" xlink:href="#DejaVuSans-50"/>
       <use x="539.0625" xlink:href="#DejaVuSans-48"/>
       <use x="602.685547" xlink:href="#DejaVuSans-49"/>
       <use x="666.308594" xlink:href="#DejaVuSans-57"/>
       <use x="729.931641" xlink:href="#DejaVuSans-50"/>
       <use x="793.554688" xlink:href="#DejaVuSans-45"/>
       <use x="829.638672" xlink:href="#DejaVuSans-50"/>
       <use x="893.261719" xlink:href="#DejaVuSans-49"/>
       <use x="956.884766" xlink:href="#DejaVuSans-45"/>
       <use x="992.96875" xlink:href="#DejaVuSans-77"/>
       <use x="1079.248047" xlink:href="#DejaVuSans-45"/>
       <use x="1115.332031" xlink:href="#DejaVuSans-48"/>
       <use x="1178.955078" xlink:href="#DejaVuSans-48"/>
       <use x="1242.578125" xlink:href="#DejaVuSans-50"/>
       <use x="1306.201172" xlink:href="#DejaVuSans-32"/>
       <use x="1337.988281" xlink:href="#DejaVuSans-73"/>
       <use x="1367.480469" xlink:href="#DejaVuSans-110"/>
       <use x="1430.859375" xlink:href="#DejaVuSans-116"/>
       <use x="1470.068359" xlink:href="#DejaVuSans-114"/>
       <use x="1511.150391" xlink:href="#DejaVuSans-111"/>
       <use x="1572.332031" xlink:href="#DejaVuSans-100"/>
       <use x="1635.808594" xlink:href="#DejaVuSans-117"/>
       <use x="1699.1875" xlink:href="#DejaVuSans-99"/>
       <use x="1754.167969" xlink:href="#DejaVuSans-116"/>
       <use x="1793.376953" xlink:href="#DejaVuSans-105"/>
       <use x="1821.160156" xlink:href="#DejaVuSans-111"/>
       <use x="1882.341797" xlink:href="#DejaVuSans-110"/>
       <use x="1945.720703" xlink:href="#DejaVuSans-32"/>
       <use x="1977.507812" xlink:href="#DejaVuSans-84"/>
       <use x="2038.326172" xlink:href="#DejaVuSans-111"/>
       <use x="2099.507812" xlink:href="#DejaVuSans-32"/>
       <use x="2131.294922" xlink:href="#DejaVuSans-80"/>
       <use x="2191.582031" xlink:href="#DejaVuSans-115"/>
       <use x="2243.681641" xlink:href="#DejaVuSans-121"/>
       <use x="2302.861328" xlink:href="#DejaVuSans-99"/>
       <use x="2357.841797" xlink:href="#DejaVuSans-104"/>
       <use x="2421.220703" xlink:href="#DejaVuSans-111"/>
       <use x="2482.402344" xlink:href="#DejaVuSans-108"/>
       <use x="2510.185547" xlink:href="#DejaVuSans-111"/>
       <use x="2571.367188" xlink:href="#DejaVuSans-103"/>
       <use x="2634.84375" xlink:href="#DejaVuSans-121"/>
       <use x="2694.023438" xlink:href="#DejaVuSans-32"/>
       <use x="2725.810547" xlink:href="#DejaVuSans-45"/>
       <use x="2761.894531" xlink:href="#DejaVuSans-32"/>
       <use x="2793.681641" xlink:href="#DejaVuSans-68"/>
       <use x="2870.683594" xlink:href="#DejaVuSans-49"/>
       <use x="2934.306641" xlink:href="#DejaVuSans-50"/>
       <use x="2997.929688" xlink:href="#DejaVuSans-56"/>
       <use x="3061.552734" xlink:href="#DejaVuSans-32"/>
       <use x="3093.339844" xlink:href="#DejaVuSans-77"/>
       <use x="3179.619141" xlink:href="#DejaVuSans-87"/>
       <use x="3278.496094" xlink:href="#DejaVuSans-32"/>
       <use x="3310.283203" xlink:href="#DejaVuSans-48"/>
       <use x="3373.90625" xlink:href="#DejaVuSans-49"/>
       <use x="3437.529297" xlink:href="#DejaVuSans-58"/>
       <use x="3471.220703" xlink:href="#DejaVuSans-48"/>
       <use x="3534.84375" xlink:href="#DejaVuSans-48"/>
       <use x="3598.466797" xlink:href="#DejaVuSans-32"/>
       <use x="3630.253906" xlink:href="#DejaVuSans-80"/>
       <use x="3690.556641" xlink:href="#DejaVuSans-77"/>
      </g>
     </g>
    </g>
    <g id="xtick_10">
     <g id="line2d_10">
      <g>
       <use style="stroke:#000000;stroke-width:0.8;" x="620.1" xlink:href="#md39a56a95c" y="320.4"/>
      </g>
     </g>
     <g id="text_10">
      <!-- ORI0003-251574 ORIENTATION - INTERNET  NR -->
      <defs>
       <path d="M 39.40625 66.21875 
Q 28.65625 66.21875 22.328125 58.203125 
Q 16.015625 50.203125 16.015625 36.375 
Q 16.015625 22.609375 22.328125 14.59375 
Q 28.65625 6.59375 39.40625 6.59375 
Q 50.140625 6.59375 56.421875 14.59375 
Q 62.703125 22.609375 62.703125 36.375 
Q 62.703125 50.203125 56.421875 58.203125 
Q 50.140625 66.21875 39.40625 66.21875 
z
M 39.40625 74.21875 
Q 54.734375 74.21875 63.90625 63.9375 
Q 73.09375 53.65625 73.09375 36.375 
Q 73.09375 19.140625 63.90625 8.859375 
Q 54.734375 -1.421875 39.40625 -1.421875 
Q 24.03125 -1.421875 14.8125 8.828125 
Q 5.609375 19.09375 5.609375 36.375 
Q 5.609375 53.65625 14.8125 63.9375 
Q 24.03125 74.21875 39.40625 74.21875 
z
" id="DejaVuSans-79"/>
       <path d="M 8.203125 72.90625 
L 55.078125 72.90625 
L 55.078125 68.703125 
L 28.609375 0 
L 18.3125 0 
L 43.21875 64.59375 
L 8.203125 64.59375 
z
" id="DejaVuSans-55"/>
      </defs>
      <g transform="translate(622.859375 564.953125)rotate(-90)scale(0.1 -0.1)">
       <use xlink:href="#DejaVuSans-79"/>
       <use x="78.710938" xlink:href="#DejaVuSans-82"/>
       <use x="148.193359" xlink:href="#DejaVuSans-73"/>
       <use x="177.685547" xlink:href="#DejaVuSans-48"/>
       <use x="241.308594" xlink:href="#DejaVuSans-48"/>
       <use x="304.931641" xlink:href="#DejaVuSans-48"/>
       <use x="368.554688" xlink:href="#DejaVuSans-51"/>
       <use x="432.177734" xlink:href="#DejaVuSans-45"/>
       <use x="468.261719" xlink:href="#DejaVuSans-50"/>
       <use x="531.884766" xlink:href="#DejaVuSans-53"/>
       <use x="595.507812" xlink:href="#DejaVuSans-49"/>
       <use x="659.130859" xlink:href="#DejaVuSans-53"/>
       <use x="722.753906" xlink:href="#DejaVuSans-55"/>
       <use x="786.376953" xlink:href="#DejaVuSans-52"/>
       <use x="850" xlink:href="#DejaVuSans-32"/>
       <use x="881.787109" xlink:href="#DejaVuSans-79"/>
       <use x="960.498047" xlink:href="#DejaVuSans-82"/>
       <use x="1029.980469" xlink:href="#DejaVuSans-73"/>
       <use x="1059.472656" xlink:href="#DejaVuSans-69"/>
       <use x="1122.65625" xlink:href="#DejaVuSans-78"/>
       <use x="1197.460938" xlink:href="#DejaVuSans-84"/>
       <use x="1258.435547" xlink:href="#DejaVuSans-65"/>
       <use x="1326.734375" xlink:href="#DejaVuSans-84"/>
       <use x="1387.818359" xlink:href="#DejaVuSans-73"/>
       <use x="1417.310547" xlink:href="#DejaVuSans-79"/>
       <use x="1496.021484" xlink:href="#DejaVuSans-78"/>
       <use x="1570.826172" xlink:href="#DejaVuSans-32"/>
       <use x="1602.613281" xlink:href="#DejaVuSans-45"/>
       <use x="1638.697266" xlink:href="#DejaVuSans-32"/>
       <use x="1670.484375" xlink:href="#DejaVuSans-73"/>
       <use x="1699.976562" xlink:href="#DejaVuSans-78"/>
       <use x="1774.78125" xlink:href="#DejaVuSans-84"/>
       <use x="1835.865234" xlink:href="#DejaVuSans-69"/>
       <use x="1899.048828" xlink:href="#DejaVuSans-82"/>
       <use x="1968.53125" xlink:href="#DejaVuSans-78"/>
       <use x="2043.335938" xlink:href="#DejaVuSans-69"/>
       <use x="2106.519531" xlink:href="#DejaVuSans-84"/>
       <use x="2167.603516" xlink:href="#DejaVuSans-32"/>
       <use x="2199.390625" xlink:href="#DejaVuSans-32"/>
       <use x="2231.177734" xlink:href="#DejaVuSans-78"/>
       <use x="2305.982422" xlink:href="#DejaVuSans-82"/>
      </g>
     </g>
    </g>
    <g id="text_11">
     <!-- Course -->
     <g transform="translate(351.54375 716.679688)scale(0.1 -0.1)">
      <use xlink:href="#DejaVuSans-67"/>
      <use x="69.824219" xlink:href="#DejaVuSans-111"/>
      <use x="131.005859" xlink:href="#DejaVuSans-117"/>
      <use x="194.384766" xlink:href="#DejaVuSans-114"/>
      <use x="235.498047" xlink:href="#DejaVuSans-115"/>
      <use x="287.597656" xlink:href="#DejaVuSans-101"/>
     </g>
    </g>
   </g>
   <g id="matplotlib.axis_2">
    <g id="ytick_1">
     <g id="line2d_11">
      <defs>
       <path d="M 0 0 
L -3.5 0 
" id="m989efac7ce" style="stroke:#000000;stroke-width:0.8;"/>
      </defs>
      <g>
       <use style="stroke:#000000;stroke-width:0.8;" x="90" xlink:href="#m989efac7ce" y="281.177042"/>
      </g>
     </g>
    </g>
    <g id="ytick_2">
     <g id="line2d_12">
      <g>
       <use style="stroke:#000000;stroke-width:0.8;" x="90" xlink:href="#m989efac7ce" y="138.622393"/>
      </g>
     </g>
    </g>
    <g id="ytick_3">
     <g id="line2d_13">
      <g>
       <use style="stroke:#000000;stroke-width:0.8;" x="90" xlink:href="#m989efac7ce" y="230.715931"/>
      </g>
     </g>
    </g>
    <g id="ytick_4">
     <g id="line2d_14">
      <g>
       <use style="stroke:#000000;stroke-width:0.8;" x="90" xlink:href="#m989efac7ce" y="223.783617"/>
      </g>
     </g>
    </g>
    <g id="ytick_5">
     <g id="line2d_15">
      <g>
       <use style="stroke:#000000;stroke-width:0.8;" x="90" xlink:href="#m989efac7ce" y="320.320903"/>
      </g>
     </g>
     <g id="text_12">
      <!-- duration_minutes -->
      <defs>
       <path d="M 50.984375 -16.609375 
L 50.984375 -23.578125 
L -0.984375 -23.578125 
L -0.984375 -16.609375 
z
" id="DejaVuSans-95"/>
      </defs>
      <g transform="translate(-4.55625 324.120122)scale(0.1 -0.1)">
       <use xlink:href="#DejaVuSans-100"/>
       <use x="63.476562" xlink:href="#DejaVuSans-117"/>
       <use x="126.855469" xlink:href="#DejaVuSans-114"/>
       <use x="167.96875" xlink:href="#DejaVuSans-97"/>
       <use x="229.248047" xlink:href="#DejaVuSans-116"/>
       <use x="268.457031" xlink:href="#DejaVuSans-105"/>
       <use x="296.240234" xlink:href="#DejaVuSans-111"/>
       <use x="357.421875" xlink:href="#DejaVuSans-110"/>
       <use x="420.800781" xlink:href="#DejaVuSans-95"/>
       <use x="470.800781" xlink:href="#DejaVuSans-109"/>
       <use x="568.212891" xlink:href="#DejaVuSans-105"/>
       <use x="595.996094" xlink:href="#DejaVuSans-110"/>
       <use x="659.375" xlink:href="#DejaVuSans-117"/>
       <use x="722.753906" xlink:href="#DejaVuSans-116"/>
       <use x="761.962891" xlink:href="#DejaVuSans-101"/>
       <use x="823.486328" xlink:href="#DejaVuSans-115"/>
      </g>
     </g>
    </g>
    <g id="ytick_6">
     <g id="line2d_16">
      <g>
       <use style="stroke:#000000;stroke-width:0.8;" x="90" xlink:href="#m989efac7ce" y="320.4"/>
      </g>
     </g>
     <g id="text_13">
      <!-- duration_minutes -->
      <g transform="translate(-4.55625 324.199219)scale(0.1 -0.1)">
       <use xlink:href="#DejaVuSans-100"/>
       <use x="63.476562" xlink:href="#DejaVuSans-117"/>
       <use x="126.855469" xlink:href="#DejaVuSans-114"/>
       <use x="167.96875" xlink:href="#DejaVuSans-97"/>
       <use x="229.248047" xlink:href="#DejaVuSans-116"/>
       <use x="268.457031" xlink:href="#DejaVuSans-105"/>
       <use x="296.240234" xlink:href="#DejaVuSans-111"/>
       <use x="357.421875" xlink:href="#DejaVuSans-110"/>
       <use x="420.800781" xlink:href="#DejaVuSans-95"/>
       <use x="470.800781" xlink:href="#DejaVuSans-109"/>
       <use x="568.212891" xlink:href="#DejaVuSans-105"/>
       <use x="595.996094" xlink:href="#DejaVuSans-110"/>
       <use x="659.375" xlink:href="#DejaVuSans-117"/>
       <use x="722.753906" xlink:href="#DejaVuSans-116"/>
       <use x="761.962891" xlink:href="#DejaVuSans-101"/>
       <use x="823.486328" xlink:href="#DejaVuSans-115"/>
      </g>
     </g>
    </g>
    <g id="ytick_7">
     <g id="line2d_17">
      <g>
       <use style="stroke:#000000;stroke-width:0.8;" x="90" xlink:href="#m989efac7ce" y="235.877652"/>
      </g>
     </g>
    </g>
    <g id="ytick_8">
     <g id="line2d_18">
      <g>
       <use style="stroke:#000000;stroke-width:0.8;" x="90" xlink:href="#m989efac7ce" y="56.4"/>
      </g>
     </g>
    </g>
    <g id="ytick_9">
     <g id="line2d_19">
      <g>
       <use style="stroke:#000000;stroke-width:0.8;" x="90" xlink:href="#m989efac7ce" y="221.232171"/>
      </g>
     </g>
    </g>
    <g id="ytick_10">
     <g id="line2d_20">
      <g>
       <use style="stroke:#000000;stroke-width:0.8;" x="90" xlink:href="#m989efac7ce" y="304.758682"/>
      </g>
     </g>
    </g>
    <g id="ytick_11">
     <g id="line2d_21">
      <g>
       <use style="stroke:#000000;stroke-width:0.8;" x="90" xlink:href="#m989efac7ce" y="207.612944"/>
      </g>
     </g>
    </g>
    <g id="text_14">
     <!-- Duration in Mintues -->
     <g transform="translate(-10.635938 230.933594)rotate(-90)scale(0.1 -0.1)">
      <use xlink:href="#DejaVuSans-68"/>
      <use x="77.001953" xlink:href="#DejaVuSans-117"/>
      <use x="140.380859" xlink:href="#DejaVuSans-114"/>
      <use x="181.494141" xlink:href="#DejaVuSans-97"/>
      <use x="242.773438" xlink:href="#DejaVuSans-116"/>
      <use x="281.982422" xlink:href="#DejaVuSans-105"/>
      <use x="309.765625" xlink:href="#DejaVuSans-111"/>
      <use x="370.947266" xlink:href="#DejaVuSans-110"/>
      <use x="434.326172" xlink:href="#DejaVuSans-32"/>
      <use x="466.113281" xlink:href="#DejaVuSans-105"/>
      <use x="493.896484" xlink:href="#DejaVuSans-110"/>
      <use x="557.275391" xlink:href="#DejaVuSans-32"/>
      <use x="589.0625" xlink:href="#DejaVuSans-77"/>
      <use x="675.341797" xlink:href="#DejaVuSans-105"/>
      <use x="703.125" xlink:href="#DejaVuSans-110"/>
      <use x="766.503906" xlink:href="#DejaVuSans-116"/>
      <use x="805.712891" xlink:href="#DejaVuSans-117"/>
      <use x="869.091797" xlink:href="#DejaVuSans-101"/>
      <use x="930.615234" xlink:href="#DejaVuSans-115"/>
     </g>
    </g>
   </g>
   <g id="patch_14">
    <path d="M 90 320.4 
L 90 43.2 
" style="fill:none;stroke:#000000;stroke-linecap:square;stroke-linejoin:miter;stroke-width:0.8;"/>
   </g>
   <g id="patch_15">
    <path d="M 648 320.4 
L 648 43.2 
" style="fill:none;stroke:#000000;stroke-linecap:square;stroke-linejoin:miter;stroke-width:0.8;"/>
   </g>
   <g id="patch_16">
    <path d="M 90 320.4 
L 648 320.4 
" style="fill:none;stroke:#000000;stroke-linecap:square;stroke-linejoin:miter;stroke-width:0.8;"/>
   </g>
   <g id="patch_17">
    <path d="M 90 43.2 
L 648 43.2 
" style="fill:none;stroke:#000000;stroke-linecap:square;stroke-linejoin:miter;stroke-width:0.8;"/>
   </g>
   <g id="legend_1">
    <g id="patch_18">
     <path d="M 97 66.15625 
L 216.55625 66.15625 
Q 218.55625 66.15625 218.55625 64.15625 
L 218.55625 50.2 
Q 218.55625 48.2 216.55625 48.2 
L 97 48.2 
Q 95 48.2 95 50.2 
L 95 64.15625 
Q 95 66.15625 97 66.15625 
z
" style="fill:#ffffff;opacity:0.8;stroke:#cccccc;stroke-linejoin:miter;"/>
    </g>
    <g id="patch_19">
     <path d="M 99 59.798437 
L 119 59.798437 
L 119 52.798437 
L 99 52.798437 
z
" style="fill:#1f77b4;"/>
    </g>
    <g id="text_15">
     <!-- duration_minutes -->
     <g transform="translate(127 59.798437)scale(0.1 -0.1)">
      <use xlink:href="#DejaVuSans-100"/>
      <use x="63.476562" xlink:href="#DejaVuSans-117"/>
      <use x="126.855469" xlink:href="#DejaVuSans-114"/>
      <use x="167.96875" xlink:href="#DejaVuSans-97"/>
      <use x="229.248047" xlink:href="#DejaVuSans-116"/>
      <use x="268.457031" xlink:href="#DejaVuSans-105"/>
      <use x="296.240234" xlink:href="#DejaVuSans-111"/>
      <use x="357.421875" xlink:href="#DejaVuSans-110"/>
      <use x="420.800781" xlink:href="#DejaVuSans-95"/>
      <use x="470.800781" xlink:href="#DejaVuSans-109"/>
      <use x="568.212891" xlink:href="#DejaVuSans-105"/>
      <use x="595.996094" xlink:href="#DejaVuSans-110"/>
      <use x="659.375" xlink:href="#DejaVuSans-117"/>
      <use x="722.753906" xlink:href="#DejaVuSans-116"/>
      <use x="761.962891" xlink:href="#DejaVuSans-101"/>
      <use x="823.486328" xlink:href="#DejaVuSans-115"/>
     </g>
    </g>
   </g>
  </g>
 </g>
 <defs>
  <clipPath id="p09f5bce0a0">
   <rect height="277.2" width="558" x="90" y="43.2"/>
  </clipPath>
 </defs>
</svg>
