<?xml version="1.0" encoding="utf-8" standalone="no"?>
<!DOCTYPE svg PUBLIC "-//W3C//DTD SVG 1.1//EN"
  "http://www.w3.org/Graphics/SVG/1.1/DTD/svg11.dtd">
<!-- Created with matplotlib (https://matplotlib.org/) -->
<svg height="345.6pt" version="1.1" viewBox="0 0 460.8 345.6" width="460.8pt" xmlns="http://www.w3.org/2000/svg" xmlns:xlink="http://www.w3.org/1999/xlink">
 <defs>
  <style type="text/css">
*{stroke-linecap:butt;stroke-linejoin:round;}
  </style>
 </defs>
 <g id="figure_1">
  <g id="patch_1">
   <path d="M 0 345.6 
L 460.8 345.6 
L 460.8 0 
L 0 0 
z
" style="fill:#ffffff;"/>
  </g>
  <g id="axes_1">
   <g id="patch_2">
    <path d="M 57.6 307.584 
L 414.72 307.584 
L 414.72 41.472 
L 57.6 41.472 
z
" style="fill:#ffffff;"/>
   </g>
   <g id="PathCollection_1">
    <path clip-path="url(#pf02261ca18)" d="M 263.415687 157.964128 
C 267.241649 157.964128 270.911426 156.444057 273.61679 153.738693 
C 276.322154 151.033329 277.842225 147.363553 277.842225 143.53759 
C 277.842225 139.711628 276.322154 136.041851 273.61679 133.336487 
C 270.911426 130.631123 267.241649 129.111052 263.415687 129.111052 
C 259.589724 129.111052 255.919948 130.631123 253.214584 133.336487 
C 250.50922 136.041851 248.989149 139.711628 248.989149 143.53759 
C 248.989149 147.363553 250.50922 151.033329 253.214584 153.738693 
C 255.919948 156.444057 259.589724 157.964128 263.415687 157.964128 
z
" style="fill:#1f77b4;fill-opacity:0.3;"/>
    <path clip-path="url(#pf02261ca18)" d="M 79.51298 297.698237 
C 81.605397 297.698237 83.612396 296.866911 85.091958 295.387348 
C 86.57152 293.907786 87.402847 291.900787 87.402847 289.80837 
C 87.402847 287.715953 86.57152 285.708954 85.091958 284.229392 
C 83.612396 282.749829 81.605397 281.918503 79.51298 281.918503 
C 77.420563 281.918503 75.413564 282.749829 73.934001 284.229392 
C 72.454439 285.708954 71.623113 287.715953 71.623113 289.80837 
C 71.623113 291.900787 72.454439 293.907786 73.934001 295.387348 
C 75.413564 296.866911 77.420563 297.698237 79.51298 297.698237 
z
" style="fill:#1f77b4;fill-opacity:0.3;"/>
    <path clip-path="url(#pf02261ca18)" d="M 389.98402 73.881332 
C 393.116337 73.881332 396.120784 72.63685 398.335667 70.421967 
C 400.55055 68.207084 401.795032 65.202637 401.795032 62.07032 
C 401.795032 58.938003 400.55055 55.933556 398.335667 53.718674 
C 396.120784 51.503791 393.116337 50.259309 389.98402 50.259309 
C 386.851704 50.259309 383.847256 51.503791 381.632374 53.718674 
C 379.417491 55.933556 378.173009 58.938003 378.173009 62.07032 
C 378.173009 65.202637 379.417491 68.207084 381.632374 70.421967 
C 383.847256 72.63685 386.851704 73.881332 389.98402 73.881332 
z
" style="fill:#1f77b4;fill-opacity:0.3;"/>
    <path clip-path="url(#pf02261ca18)" d="M 357.530602 93.222686 
C 361.864056 93.222686 366.020607 91.500986 369.084822 88.436771 
C 372.149037 85.372556 373.870736 81.216006 373.870736 76.882551 
C 373.870736 72.549097 372.149037 68.392546 369.084822 65.328331 
C 366.020607 62.264116 361.864056 60.542417 357.530602 60.542417 
C 353.197147 60.542417 349.040597 62.264116 345.976382 65.328331 
C 342.912167 68.392546 341.190467 72.549097 341.190467 76.882551 
C 341.190467 81.216006 342.912167 85.372556 345.976382 88.436771 
C 349.040597 91.500986 353.197147 93.222686 357.530602 93.222686 
z
" style="fill:#1f77b4;fill-opacity:0.3;"/>
   </g>
   <g id="PathCollection_2">
    <path clip-path="url(#pf02261ca18)" d="M 263.415687 157.964128 
C 267.241649 157.964128 270.911426 156.444057 273.61679 153.738693 
C 276.322154 151.033329 277.842225 147.363553 277.842225 143.53759 
C 277.842225 139.711628 276.322154 136.041851 273.61679 133.336487 
C 270.911426 130.631123 267.241649 129.111052 263.415687 129.111052 
C 259.589724 129.111052 255.919948 130.631123 253.214584 133.336487 
C 250.50922 136.041851 248.989149 139.711628 248.989149 143.53759 
C 248.989149 147.363553 250.50922 151.033329 253.214584 153.738693 
C 255.919948 156.444057 259.589724 157.964128 263.415687 157.964128 
z
" style="fill:#ff7f0e;fill-opacity:0.3;"/>
    <path clip-path="url(#pf02261ca18)" d="M 79.51298 297.698237 
C 81.605397 297.698237 83.612396 296.866911 85.091958 295.387348 
C 86.57152 293.907786 87.402847 291.900787 87.402847 289.80837 
C 87.402847 287.715953 86.57152 285.708954 85.091958 284.229392 
C 83.612396 282.749829 81.605397 281.918503 79.51298 281.918503 
C 77.420563 281.918503 75.413564 282.749829 73.934001 284.229392 
C 72.454439 285.708954 71.623113 287.715953 71.623113 289.80837 
C 71.623113 291.900787 72.454439 293.907786 73.934001 295.387348 
C 75.413564 296.866911 77.420563 297.698237 79.51298 297.698237 
z
" style="fill:#ff7f0e;fill-opacity:0.3;"/>
    <path clip-path="url(#pf02261ca18)" d="M 389.98402 73.881332 
C 393.116337 73.881332 396.120784 72.63685 398.335667 70.421967 
C 400.55055 68.207084 401.795032 65.202637 401.795032 62.07032 
C 401.795032 58.938003 400.55055 55.933556 398.335667 53.718674 
C 396.120784 51.503791 393.116337 50.259309 389.98402 50.259309 
C 386.851704 50.259309 383.847256 51.503791 381.632374 53.718674 
C 379.417491 55.933556 378.173009 58.938003 378.173009 62.07032 
C 378.173009 65.202637 379.417491 68.207084 381.632374 70.421967 
C 383.847256 72.63685 386.851704 73.881332 389.98402 73.881332 
z
" style="fill:#ff7f0e;fill-opacity:0.3;"/>
    <path clip-path="url(#pf02261ca18)" d="M 357.530602 93.222686 
C 361.864056 93.222686 366.020607 91.500986 369.084822 88.436771 
C 372.149037 85.372556 373.870736 81.216006 373.870736 76.882551 
C 373.870736 72.549097 372.149037 68.392546 369.084822 65.328331 
C 366.020607 62.264116 361.864056 60.542417 357.530602 60.542417 
C 353.197147 60.542417 349.040597 62.264116 345.976382 65.328331 
C 342.912167 68.392546 341.190467 72.549097 341.190467 76.882551 
C 341.190467 81.216006 342.912167 85.372556 345.976382 88.436771 
C 349.040597 91.500986 353.197147 93.222686 357.530602 93.222686 
z
" style="fill:#ff7f0e;fill-opacity:0.3;"/>
   </g>
   <g id="PathCollection_3">
    <path clip-path="url(#pf02261ca18)" d="M 263.415687 157.964128 
C 267.241649 157.964128 270.911426 156.444057 273.61679 153.738693 
C 276.322154 151.033329 277.842225 147.363553 277.842225 143.53759 
C 277.842225 139.711628 276.322154 136.041851 273.61679 133.336487 
C 270.911426 130.631123 267.241649 129.111052 263.415687 129.111052 
C 259.589724 129.111052 255.919948 130.631123 253.214584 133.336487 
C 250.50922 136.041851 248.989149 139.711628 248.989149 143.53759 
C 248.989149 147.363553 250.50922 151.033329 253.214584 153.738693 
C 255.919948 156.444057 259.589724 157.964128 263.415687 157.964128 
z
" style="fill:#2ca02c;fill-opacity:0.3;"/>
    <path clip-path="url(#pf02261ca18)" d="M 79.51298 297.698237 
C 81.605397 297.698237 83.612396 296.866911 85.091958 295.387348 
C 86.57152 293.907786 87.402847 291.900787 87.402847 289.80837 
C 87.402847 287.715953 86.57152 285.708954 85.091958 284.229392 
C 83.612396 282.749829 81.605397 281.918503 79.51298 281.918503 
C 77.420563 281.918503 75.413564 282.749829 73.934001 284.229392 
C 72.454439 285.708954 71.623113 287.715953 71.623113 289.80837 
C 71.623113 291.900787 72.454439 293.907786 73.934001 295.387348 
C 75.413564 296.866911 77.420563 297.698237 79.51298 297.698237 
z
" style="fill:#2ca02c;fill-opacity:0.3;"/>
    <path clip-path="url(#pf02261ca18)" d="M 389.98402 73.881332 
C 393.116337 73.881332 396.120784 72.63685 398.335667 70.421967 
C 400.55055 68.207084 401.795032 65.202637 401.795032 62.07032 
C 401.795032 58.938003 400.55055 55.933556 398.335667 53.718674 
C 396.120784 51.503791 393.116337 50.259309 389.98402 50.259309 
C 386.851704 50.259309 383.847256 51.503791 381.632374 53.718674 
C 379.417491 55.933556 378.173009 58.938003 378.173009 62.07032 
C 378.173009 65.202637 379.417491 68.207084 381.632374 70.421967 
C 383.847256 72.63685 386.851704 73.881332 389.98402 73.881332 
z
" style="fill:#2ca02c;fill-opacity:0.3;"/>
    <path clip-path="url(#pf02261ca18)" d="M 357.530602 93.222686 
C 361.864056 93.222686 366.020607 91.500986 369.084822 88.436771 
C 372.149037 85.372556 373.870736 81.216006 373.870736 76.882551 
C 373.870736 72.549097 372.149037 68.392546 369.084822 65.328331 
C 366.020607 62.264116 361.864056 60.542417 357.530602 60.542417 
C 353.197147 60.542417 349.040597 62.264116 345.976382 65.328331 
C 342.912167 68.392546 341.190467 72.549097 341.190467 76.882551 
C 341.190467 81.216006 342.912167 85.372556 345.976382 88.436771 
C 349.040597 91.500986 353.197147 93.222686 357.530602 93.222686 
z
" style="fill:#2ca02c;fill-opacity:0.3;"/>
   </g>
   <g id="PathCollection_4">
    <path clip-path="url(#pf02261ca18)" d="M 263.415687 157.964128 
C 267.241649 157.964128 270.911426 156.444057 273.61679 153.738693 
C 276.322154 151.033329 277.842225 147.363553 277.842225 143.53759 
C 277.842225 139.711628 276.322154 136.041851 273.61679 133.336487 
C 270.911426 130.631123 267.241649 129.111052 263.415687 129.111052 
C 259.589724 129.111052 255.919948 130.631123 253.214584 133.336487 
C 250.50922 136.041851 248.989149 139.711628 248.989149 143.53759 
C 248.989149 147.363553 250.50922 151.033329 253.214584 153.738693 
C 255.919948 156.444057 259.589724 157.964128 263.415687 157.964128 
z
" style="fill:#d62728;fill-opacity:0.3;"/>
    <path clip-path="url(#pf02261ca18)" d="M 79.51298 297.698237 
C 81.605397 297.698237 83.612396 296.866911 85.091958 295.387348 
C 86.57152 293.907786 87.402847 291.900787 87.402847 289.80837 
C 87.402847 287.715953 86.57152 285.708954 85.091958 284.229392 
C 83.612396 282.749829 81.605397 281.918503 79.51298 281.918503 
C 77.420563 281.918503 75.413564 282.749829 73.934001 284.229392 
C 72.454439 285.708954 71.623113 287.715953 71.623113 289.80837 
C 71.623113 291.900787 72.454439 293.907786 73.934001 295.387348 
C 75.413564 296.866911 77.420563 297.698237 79.51298 297.698237 
z
" style="fill:#d62728;fill-opacity:0.3;"/>
    <path clip-path="url(#pf02261ca18)" d="M 389.98402 73.881332 
C 393.116337 73.881332 396.120784 72.63685 398.335667 70.421967 
C 400.55055 68.207084 401.795032 65.202637 401.795032 62.07032 
C 401.795032 58.938003 400.55055 55.933556 398.335667 53.718674 
C 396.120784 51.503791 393.116337 50.259309 389.98402 50.259309 
C 386.851704 50.259309 383.847256 51.503791 381.632374 53.718674 
C 379.417491 55.933556 378.173009 58.938003 378.173009 62.07032 
C 378.173009 65.202637 379.417491 68.207084 381.632374 70.421967 
C 383.847256 72.63685 386.851704 73.881332 389.98402 73.881332 
z
" style="fill:#d62728;fill-opacity:0.3;"/>
    <path clip-path="url(#pf02261ca18)" d="M 357.530602 93.222686 
C 361.864056 93.222686 366.020607 91.500986 369.084822 88.436771 
C 372.149037 85.372556 373.870736 81.216006 373.870736 76.882551 
C 373.870736 72.549097 372.149037 68.392546 369.084822 65.328331 
C 366.020607 62.264116 361.864056 60.542417 357.530602 60.542417 
C 353.197147 60.542417 349.040597 62.264116 345.976382 65.328331 
C 342.912167 68.392546 341.190467 72.549097 341.190467 76.882551 
C 341.190467 81.216006 342.912167 85.372556 345.976382 88.436771 
C 349.040597 91.500986 353.197147 93.222686 357.530602 93.222686 
z
" style="fill:#d62728;fill-opacity:0.3;"/>
   </g>
   <g id="matplotlib.axis_1">
    <g id="xtick_1">
     <g id="line2d_1">
      <path clip-path="url(#pf02261ca18)" d="M 83.840102 307.584 
L 83.840102 41.472 
" style="fill:none;stroke:#b0b0b0;stroke-linecap:square;stroke-width:0.8;"/>
     </g>
     <g id="line2d_2">
      <defs>
       <path d="M 0 0 
L 0 3.5 
" id="m73e2130094" style="stroke:#000000;stroke-width:0.8;"/>
      </defs>
      <g>
       <use style="stroke:#000000;stroke-width:0.8;" x="83.840102" xlink:href="#m73e2130094" y="307.584"/>
      </g>
     </g>
     <g id="text_1">
      <!-- 50 -->
      <defs>
       <path d="M 10.796875 72.90625 
L 49.515625 72.90625 
L 49.515625 64.59375 
L 19.828125 64.59375 
L 19.828125 46.734375 
Q 21.96875 47.46875 24.109375 47.828125 
Q 26.265625 48.1875 28.421875 48.1875 
Q 40.625 48.1875 47.75 41.5 
Q 54.890625 34.8125 54.890625 23.390625 
Q 54.890625 11.625 47.5625 5.09375 
Q 40.234375 -1.421875 26.90625 -1.421875 
Q 22.3125 -1.421875 17.546875 -0.640625 
Q 12.796875 0.140625 7.71875 1.703125 
L 7.71875 11.625 
Q 12.109375 9.234375 16.796875 8.0625 
Q 21.484375 6.890625 26.703125 6.890625 
Q 35.15625 6.890625 40.078125 11.328125 
Q 45.015625 15.765625 45.015625 23.390625 
Q 45.015625 31 40.078125 35.4375 
Q 35.15625 39.890625 26.703125 39.890625 
Q 22.75 39.890625 18.8125 39.015625 
Q 14.890625 38.140625 10.796875 36.28125 
z
" id="DejaVuSans-53"/>
       <path d="M 31.78125 66.40625 
Q 24.171875 66.40625 20.328125 58.90625 
Q 16.5 51.421875 16.5 36.375 
Q 16.5 21.390625 20.328125 13.890625 
Q 24.171875 6.390625 31.78125 6.390625 
Q 39.453125 6.390625 43.28125 13.890625 
Q 47.125 21.390625 47.125 36.375 
Q 47.125 51.421875 43.28125 58.90625 
Q 39.453125 66.40625 31.78125 66.40625 
z
M 31.78125 74.21875 
Q 44.046875 74.21875 50.515625 64.515625 
Q 56.984375 54.828125 56.984375 36.375 
Q 56.984375 17.96875 50.515625 8.265625 
Q 44.046875 -1.421875 31.78125 -1.421875 
Q 19.53125 -1.421875 13.0625 8.265625 
Q 6.59375 17.96875 6.59375 36.375 
Q 6.59375 54.828125 13.0625 64.515625 
Q 19.53125 74.21875 31.78125 74.21875 
z
" id="DejaVuSans-48"/>
      </defs>
      <g transform="translate(77.477602 322.182437)scale(0.1 -0.1)">
       <use xlink:href="#DejaVuSans-53"/>
       <use x="63.623047" xlink:href="#DejaVuSans-48"/>
      </g>
     </g>
    </g>
    <g id="xtick_2">
     <g id="line2d_3">
      <path clip-path="url(#pf02261ca18)" d="M 137.929134 307.584 
L 137.929134 41.472 
" style="fill:none;stroke:#b0b0b0;stroke-linecap:square;stroke-width:0.8;"/>
     </g>
     <g id="line2d_4">
      <g>
       <use style="stroke:#000000;stroke-width:0.8;" x="137.929134" xlink:href="#m73e2130094" y="307.584"/>
      </g>
     </g>
     <g id="text_2">
      <!-- 100 -->
      <defs>
       <path d="M 12.40625 8.296875 
L 28.515625 8.296875 
L 28.515625 63.921875 
L 10.984375 60.40625 
L 10.984375 69.390625 
L 28.421875 72.90625 
L 38.28125 72.90625 
L 38.28125 8.296875 
L 54.390625 8.296875 
L 54.390625 0 
L 12.40625 0 
z
" id="DejaVuSans-49"/>
      </defs>
      <g transform="translate(128.385384 322.182437)scale(0.1 -0.1)">
       <use xlink:href="#DejaVuSans-49"/>
       <use x="63.623047" xlink:href="#DejaVuSans-48"/>
       <use x="127.246094" xlink:href="#DejaVuSans-48"/>
      </g>
     </g>
    </g>
    <g id="xtick_3">
     <g id="line2d_5">
      <path clip-path="url(#pf02261ca18)" d="M 192.018165 307.584 
L 192.018165 41.472 
" style="fill:none;stroke:#b0b0b0;stroke-linecap:square;stroke-width:0.8;"/>
     </g>
     <g id="line2d_6">
      <g>
       <use style="stroke:#000000;stroke-width:0.8;" x="192.018165" xlink:href="#m73e2130094" y="307.584"/>
      </g>
     </g>
     <g id="text_3">
      <!-- 150 -->
      <g transform="translate(182.474415 322.182437)scale(0.1 -0.1)">
       <use xlink:href="#DejaVuSans-49"/>
       <use x="63.623047" xlink:href="#DejaVuSans-53"/>
       <use x="127.246094" xlink:href="#DejaVuSans-48"/>
      </g>
     </g>
    </g>
    <g id="xtick_4">
     <g id="line2d_7">
      <path clip-path="url(#pf02261ca18)" d="M 246.107197 307.584 
L 246.107197 41.472 
" style="fill:none;stroke:#b0b0b0;stroke-linecap:square;stroke-width:0.8;"/>
     </g>
     <g id="line2d_8">
      <g>
       <use style="stroke:#000000;stroke-width:0.8;" x="246.107197" xlink:href="#m73e2130094" y="307.584"/>
      </g>
     </g>
     <g id="text_4">
      <!-- 200 -->
      <defs>
       <path d="M 19.1875 8.296875 
L 53.609375 8.296875 
L 53.609375 0 
L 7.328125 0 
L 7.328125 8.296875 
Q 12.9375 14.109375 22.625 23.890625 
Q 32.328125 33.6875 34.8125 36.53125 
Q 39.546875 41.84375 41.421875 45.53125 
Q 43.3125 49.21875 43.3125 52.78125 
Q 43.3125 58.59375 39.234375 62.25 
Q 35.15625 65.921875 28.609375 65.921875 
Q 23.96875 65.921875 18.8125 64.3125 
Q 13.671875 62.703125 7.8125 59.421875 
L 7.8125 69.390625 
Q 13.765625 71.78125 18.9375 73 
Q 24.125 74.21875 28.421875 74.21875 
Q 39.75 74.21875 46.484375 68.546875 
Q 53.21875 62.890625 53.21875 53.421875 
Q 53.21875 48.921875 51.53125 44.890625 
Q 49.859375 40.875 45.40625 35.40625 
Q 44.1875 33.984375 37.640625 27.21875 
Q 31.109375 20.453125 19.1875 8.296875 
z
" id="DejaVuSans-50"/>
      </defs>
      <g transform="translate(236.563447 322.182437)scale(0.1 -0.1)">
       <use xlink:href="#DejaVuSans-50"/>
       <use x="63.623047" xlink:href="#DejaVuSans-48"/>
       <use x="127.246094" xlink:href="#DejaVuSans-48"/>
      </g>
     </g>
    </g>
    <g id="xtick_5">
     <g id="line2d_9">
      <path clip-path="url(#pf02261ca18)" d="M 300.196228 307.584 
L 300.196228 41.472 
" style="fill:none;stroke:#b0b0b0;stroke-linecap:square;stroke-width:0.8;"/>
     </g>
     <g id="line2d_10">
      <g>
       <use style="stroke:#000000;stroke-width:0.8;" x="300.196228" xlink:href="#m73e2130094" y="307.584"/>
      </g>
     </g>
     <g id="text_5">
      <!-- 250 -->
      <g transform="translate(290.652478 322.182437)scale(0.1 -0.1)">
       <use xlink:href="#DejaVuSans-50"/>
       <use x="63.623047" xlink:href="#DejaVuSans-53"/>
       <use x="127.246094" xlink:href="#DejaVuSans-48"/>
      </g>
     </g>
    </g>
    <g id="xtick_6">
     <g id="line2d_11">
      <path clip-path="url(#pf02261ca18)" d="M 354.28526 307.584 
L 354.28526 41.472 
" style="fill:none;stroke:#b0b0b0;stroke-linecap:square;stroke-width:0.8;"/>
     </g>
     <g id="line2d_12">
      <g>
       <use style="stroke:#000000;stroke-width:0.8;" x="354.28526" xlink:href="#m73e2130094" y="307.584"/>
      </g>
     </g>
     <g id="text_6">
      <!-- 300 -->
      <defs>
       <path d="M 40.578125 39.3125 
Q 47.65625 37.796875 51.625 33 
Q 55.609375 28.21875 55.609375 21.1875 
Q 55.609375 10.40625 48.1875 4.484375 
Q 40.765625 -1.421875 27.09375 -1.421875 
Q 22.515625 -1.421875 17.65625 -0.515625 
Q 12.796875 0.390625 7.625 2.203125 
L 7.625 11.71875 
Q 11.71875 9.328125 16.59375 8.109375 
Q 21.484375 6.890625 26.8125 6.890625 
Q 36.078125 6.890625 40.9375 10.546875 
Q 45.796875 14.203125 45.796875 21.1875 
Q 45.796875 27.640625 41.28125 31.265625 
Q 36.765625 34.90625 28.71875 34.90625 
L 20.21875 34.90625 
L 20.21875 43.015625 
L 29.109375 43.015625 
Q 36.375 43.015625 40.234375 45.921875 
Q 44.09375 48.828125 44.09375 54.296875 
Q 44.09375 59.90625 40.109375 62.90625 
Q 36.140625 65.921875 28.71875 65.921875 
Q 24.65625 65.921875 20.015625 65.03125 
Q 15.375 64.15625 9.8125 62.3125 
L 9.8125 71.09375 
Q 15.4375 72.65625 20.34375 73.4375 
Q 25.25 74.21875 29.59375 74.21875 
Q 40.828125 74.21875 47.359375 69.109375 
Q 53.90625 64.015625 53.90625 55.328125 
Q 53.90625 49.265625 50.4375 45.09375 
Q 46.96875 40.921875 40.578125 39.3125 
z
" id="DejaVuSans-51"/>
      </defs>
      <g transform="translate(344.74151 322.182437)scale(0.1 -0.1)">
       <use xlink:href="#DejaVuSans-51"/>
       <use x="63.623047" xlink:href="#DejaVuSans-48"/>
       <use x="127.246094" xlink:href="#DejaVuSans-48"/>
      </g>
     </g>
    </g>
    <g id="xtick_7">
     <g id="line2d_13">
      <path clip-path="url(#pf02261ca18)" d="M 408.374291 307.584 
L 408.374291 41.472 
" style="fill:none;stroke:#b0b0b0;stroke-linecap:square;stroke-width:0.8;"/>
     </g>
     <g id="line2d_14">
      <g>
       <use style="stroke:#000000;stroke-width:0.8;" x="408.374291" xlink:href="#m73e2130094" y="307.584"/>
      </g>
     </g>
     <g id="text_7">
      <!-- 350 -->
      <g transform="translate(398.830541 322.182437)scale(0.1 -0.1)">
       <use xlink:href="#DejaVuSans-51"/>
       <use x="63.623047" xlink:href="#DejaVuSans-53"/>
       <use x="127.246094" xlink:href="#DejaVuSans-48"/>
      </g>
     </g>
    </g>
   </g>
   <g id="matplotlib.axis_2">
    <g id="ytick_1">
     <g id="line2d_15">
      <path clip-path="url(#pf02261ca18)" d="M 57.6 278.699197 
L 414.72 278.699197 
" style="fill:none;stroke:#b0b0b0;stroke-linecap:square;stroke-width:0.8;"/>
     </g>
     <g id="line2d_16">
      <defs>
       <path d="M 0 0 
L -3.5 0 
" id="m3c48496775" style="stroke:#000000;stroke-width:0.8;"/>
      </defs>
      <g>
       <use style="stroke:#000000;stroke-width:0.8;" x="57.6" xlink:href="#m3c48496775" y="278.699197"/>
      </g>
     </g>
     <g id="text_8">
      <!-- 50 -->
      <g transform="translate(37.875 282.498416)scale(0.1 -0.1)">
       <use xlink:href="#DejaVuSans-53"/>
       <use x="63.623047" xlink:href="#DejaVuSans-48"/>
      </g>
     </g>
    </g>
    <g id="ytick_2">
     <g id="line2d_17">
      <path clip-path="url(#pf02261ca18)" d="M 57.6 232.410975 
L 414.72 232.410975 
" style="fill:none;stroke:#b0b0b0;stroke-linecap:square;stroke-width:0.8;"/>
     </g>
     <g id="line2d_18">
      <g>
       <use style="stroke:#000000;stroke-width:0.8;" x="57.6" xlink:href="#m3c48496775" y="232.410975"/>
      </g>
     </g>
     <g id="text_9">
      <!-- 100 -->
      <g transform="translate(31.5125 236.210194)scale(0.1 -0.1)">
       <use xlink:href="#DejaVuSans-49"/>
       <use x="63.623047" xlink:href="#DejaVuSans-48"/>
       <use x="127.246094" xlink:href="#DejaVuSans-48"/>
      </g>
     </g>
    </g>
    <g id="ytick_3">
     <g id="line2d_19">
      <path clip-path="url(#pf02261ca18)" d="M 57.6 186.122754 
L 414.72 186.122754 
" style="fill:none;stroke:#b0b0b0;stroke-linecap:square;stroke-width:0.8;"/>
     </g>
     <g id="line2d_20">
      <g>
       <use style="stroke:#000000;stroke-width:0.8;" x="57.6" xlink:href="#m3c48496775" y="186.122754"/>
      </g>
     </g>
     <g id="text_10">
      <!-- 150 -->
      <g transform="translate(31.5125 189.921973)scale(0.1 -0.1)">
       <use xlink:href="#DejaVuSans-49"/>
       <use x="63.623047" xlink:href="#DejaVuSans-53"/>
       <use x="127.246094" xlink:href="#DejaVuSans-48"/>
      </g>
     </g>
    </g>
    <g id="ytick_4">
     <g id="line2d_21">
      <path clip-path="url(#pf02261ca18)" d="M 57.6 139.834532 
L 414.72 139.834532 
" style="fill:none;stroke:#b0b0b0;stroke-linecap:square;stroke-width:0.8;"/>
     </g>
     <g id="line2d_22">
      <g>
       <use style="stroke:#000000;stroke-width:0.8;" x="57.6" xlink:href="#m3c48496775" y="139.834532"/>
      </g>
     </g>
     <g id="text_11">
      <!-- 200 -->
      <g transform="translate(31.5125 143.633751)scale(0.1 -0.1)">
       <use xlink:href="#DejaVuSans-50"/>
       <use x="63.623047" xlink:href="#DejaVuSans-48"/>
       <use x="127.246094" xlink:href="#DejaVuSans-48"/>
      </g>
     </g>
    </g>
    <g id="ytick_5">
     <g id="line2d_23">
      <path clip-path="url(#pf02261ca18)" d="M 57.6 93.546311 
L 414.72 93.546311 
" style="fill:none;stroke:#b0b0b0;stroke-linecap:square;stroke-width:0.8;"/>
     </g>
     <g id="line2d_24">
      <g>
       <use style="stroke:#000000;stroke-width:0.8;" x="57.6" xlink:href="#m3c48496775" y="93.546311"/>
      </g>
     </g>
     <g id="text_12">
      <!-- 250 -->
      <g transform="translate(31.5125 97.34553)scale(0.1 -0.1)">
       <use xlink:href="#DejaVuSans-50"/>
       <use x="63.623047" xlink:href="#DejaVuSans-53"/>
       <use x="127.246094" xlink:href="#DejaVuSans-48"/>
      </g>
     </g>
    </g>
    <g id="ytick_6">
     <g id="line2d_25">
      <path clip-path="url(#pf02261ca18)" d="M 57.6 47.25809 
L 414.72 47.25809 
" style="fill:none;stroke:#b0b0b0;stroke-linecap:square;stroke-width:0.8;"/>
     </g>
     <g id="line2d_26">
      <g>
       <use style="stroke:#000000;stroke-width:0.8;" x="57.6" xlink:href="#m3c48496775" y="47.25809"/>
      </g>
     </g>
     <g id="text_13">
      <!-- 300 -->
      <g transform="translate(31.5125 51.057308)scale(0.1 -0.1)">
       <use xlink:href="#DejaVuSans-51"/>
       <use x="63.623047" xlink:href="#DejaVuSans-48"/>
       <use x="127.246094" xlink:href="#DejaVuSans-48"/>
      </g>
     </g>
    </g>
   </g>
   <g id="patch_3">
    <path d="M 57.6 307.584 
L 57.6 41.472 
" style="fill:none;stroke:#000000;stroke-linecap:square;stroke-linejoin:miter;stroke-width:0.8;"/>
   </g>
   <g id="patch_4">
    <path d="M 414.72 307.584 
L 414.72 41.472 
" style="fill:none;stroke:#000000;stroke-linecap:square;stroke-linejoin:miter;stroke-width:0.8;"/>
   </g>
   <g id="patch_5">
    <path d="M 57.6 307.584 
L 414.72 307.584 
" style="fill:none;stroke:#000000;stroke-linecap:square;stroke-linejoin:miter;stroke-width:0.8;"/>
   </g>
   <g id="patch_6">
    <path d="M 57.6 41.472 
L 414.72 41.472 
" style="fill:none;stroke:#000000;stroke-linecap:square;stroke-linejoin:miter;stroke-width:0.8;"/>
   </g>
   <g id="legend_1">
    <g id="patch_7">
     <path d="M 64.6 108.1845 
L 167.659375 108.1845 
Q 169.659375 108.1845 169.659375 106.1845 
L 169.659375 48.472 
Q 169.659375 46.472 167.659375 46.472 
L 64.6 46.472 
Q 62.6 46.472 62.6 48.472 
L 62.6 106.1845 
Q 62.6 108.1845 64.6 108.1845 
z
" style="fill:#ffffff;opacity:0.8;stroke:#cccccc;stroke-linejoin:miter;"/>
    </g>
    <g id="PathCollection_5">
     <path d="M 76.6 68.276065 
C 80.002722 68.276065 83.266536 66.924149 85.672624 64.518061 
C 88.078712 62.111973 89.430627 58.84816 89.430627 55.445438 
C 89.430627 52.042715 88.078712 48.778902 85.672624 46.372814 
C 83.266536 43.966726 80.002722 42.61481 76.6 42.61481 
C 73.197278 42.61481 69.933464 43.966726 67.527376 46.372814 
C 65.121288 48.778902 63.769373 52.042715 63.769373 55.445438 
C 63.769373 58.84816 65.121288 62.111973 67.527376 64.518061 
C 69.933464 66.924149 73.197278 68.276065 76.6 68.276065 
z
" style="fill:#1f77b4;fill-opacity:0.3;"/>
    </g>
    <g id="text_14">
     <!-- Fall 2019 -->
     <defs>
      <path d="M 9.8125 72.90625 
L 51.703125 72.90625 
L 51.703125 64.59375 
L 19.671875 64.59375 
L 19.671875 43.109375 
L 48.578125 43.109375 
L 48.578125 34.8125 
L 19.671875 34.8125 
L 19.671875 0 
L 9.8125 0 
z
" id="DejaVuSans-70"/>
      <path d="M 34.28125 27.484375 
Q 23.390625 27.484375 19.1875 25 
Q 14.984375 22.515625 14.984375 16.5 
Q 14.984375 11.71875 18.140625 8.90625 
Q 21.296875 6.109375 26.703125 6.109375 
Q 34.1875 6.109375 38.703125 11.40625 
Q 43.21875 16.703125 43.21875 25.484375 
L 43.21875 27.484375 
z
M 52.203125 31.203125 
L 52.203125 0 
L 43.21875 0 
L 43.21875 8.296875 
Q 40.140625 3.328125 35.546875 0.953125 
Q 30.953125 -1.421875 24.3125 -1.421875 
Q 15.921875 -1.421875 10.953125 3.296875 
Q 6 8.015625 6 15.921875 
Q 6 25.140625 12.171875 29.828125 
Q 18.359375 34.515625 30.609375 34.515625 
L 43.21875 34.515625 
L 43.21875 35.40625 
Q 43.21875 41.609375 39.140625 45 
Q 35.0625 48.390625 27.6875 48.390625 
Q 23 48.390625 18.546875 47.265625 
Q 14.109375 46.140625 10.015625 43.890625 
L 10.015625 52.203125 
Q 14.9375 54.109375 19.578125 55.046875 
Q 24.21875 56 28.609375 56 
Q 40.484375 56 46.34375 49.84375 
Q 52.203125 43.703125 52.203125 31.203125 
z
" id="DejaVuSans-97"/>
      <path d="M 9.421875 75.984375 
L 18.40625 75.984375 
L 18.40625 0 
L 9.421875 0 
z
" id="DejaVuSans-108"/>
      <path id="DejaVuSans-32"/>
      <path d="M 10.984375 1.515625 
L 10.984375 10.5 
Q 14.703125 8.734375 18.5 7.8125 
Q 22.3125 6.890625 25.984375 6.890625 
Q 35.75 6.890625 40.890625 13.453125 
Q 46.046875 20.015625 46.78125 33.40625 
Q 43.953125 29.203125 39.59375 26.953125 
Q 35.25 24.703125 29.984375 24.703125 
Q 19.046875 24.703125 12.671875 31.3125 
Q 6.296875 37.9375 6.296875 49.421875 
Q 6.296875 60.640625 12.9375 67.421875 
Q 19.578125 74.21875 30.609375 74.21875 
Q 43.265625 74.21875 49.921875 64.515625 
Q 56.59375 54.828125 56.59375 36.375 
Q 56.59375 19.140625 48.40625 8.859375 
Q 40.234375 -1.421875 26.421875 -1.421875 
Q 22.703125 -1.421875 18.890625 -0.6875 
Q 15.09375 0.046875 10.984375 1.515625 
z
M 30.609375 32.421875 
Q 37.25 32.421875 41.125 36.953125 
Q 45.015625 41.5 45.015625 49.421875 
Q 45.015625 57.28125 41.125 61.84375 
Q 37.25 66.40625 30.609375 66.40625 
Q 23.96875 66.40625 20.09375 61.84375 
Q 16.21875 57.28125 16.21875 49.421875 
Q 16.21875 41.5 20.09375 36.953125 
Q 23.96875 32.421875 30.609375 32.421875 
z
" id="DejaVuSans-57"/>
     </defs>
     <g transform="translate(94.6 58.070438)scale(0.1 -0.1)">
      <use xlink:href="#DejaVuSans-70"/>
      <use x="57.378906" xlink:href="#DejaVuSans-97"/>
      <use x="118.658203" xlink:href="#DejaVuSans-108"/>
      <use x="146.441406" xlink:href="#DejaVuSans-108"/>
      <use x="174.224609" xlink:href="#DejaVuSans-32"/>
      <use x="206.011719" xlink:href="#DejaVuSans-50"/>
      <use x="269.634766" xlink:href="#DejaVuSans-48"/>
      <use x="333.257812" xlink:href="#DejaVuSans-49"/>
      <use x="396.880859" xlink:href="#DejaVuSans-57"/>
     </g>
    </g>
    <g id="PathCollection_6">
     <path d="M 76.6 82.95419 
C 80.002722 82.95419 83.266536 81.602274 85.672624 79.196186 
C 88.078712 76.790098 89.430627 73.526285 89.430627 70.123563 
C 89.430627 66.72084 88.078712 63.457027 85.672624 61.050939 
C 83.266536 58.644851 80.002722 57.292935 76.6 57.292935 
C 73.197278 57.292935 69.933464 58.644851 67.527376 61.050939 
C 65.121288 63.457027 63.769373 66.72084 63.769373 70.123563 
C 63.769373 73.526285 65.121288 76.790098 67.527376 79.196186 
C 69.933464 81.602274 73.197278 82.95419 76.6 82.95419 
z
" style="fill:#ff7f0e;fill-opacity:0.3;"/>
    </g>
    <g id="text_15">
     <!-- Summer 2019 -->
     <defs>
      <path d="M 53.515625 70.515625 
L 53.515625 60.890625 
Q 47.90625 63.578125 42.921875 64.890625 
Q 37.9375 66.21875 33.296875 66.21875 
Q 25.25 66.21875 20.875 63.09375 
Q 16.5 59.96875 16.5 54.203125 
Q 16.5 49.359375 19.40625 46.890625 
Q 22.3125 44.4375 30.421875 42.921875 
L 36.375 41.703125 
Q 47.40625 39.59375 52.65625 34.296875 
Q 57.90625 29 57.90625 20.125 
Q 57.90625 9.515625 50.796875 4.046875 
Q 43.703125 -1.421875 29.984375 -1.421875 
Q 24.8125 -1.421875 18.96875 -0.25 
Q 13.140625 0.921875 6.890625 3.21875 
L 6.890625 13.375 
Q 12.890625 10.015625 18.65625 8.296875 
Q 24.421875 6.59375 29.984375 6.59375 
Q 38.421875 6.59375 43.015625 9.90625 
Q 47.609375 13.234375 47.609375 19.390625 
Q 47.609375 24.75 44.3125 27.78125 
Q 41.015625 30.8125 33.5 32.328125 
L 27.484375 33.5 
Q 16.453125 35.6875 11.515625 40.375 
Q 6.59375 45.0625 6.59375 53.421875 
Q 6.59375 63.09375 13.40625 68.65625 
Q 20.21875 74.21875 32.171875 74.21875 
Q 37.3125 74.21875 42.625 73.28125 
Q 47.953125 72.359375 53.515625 70.515625 
z
" id="DejaVuSans-83"/>
      <path d="M 8.5 21.578125 
L 8.5 54.6875 
L 17.484375 54.6875 
L 17.484375 21.921875 
Q 17.484375 14.15625 20.5 10.265625 
Q 23.53125 6.390625 29.59375 6.390625 
Q 36.859375 6.390625 41.078125 11.03125 
Q 45.3125 15.671875 45.3125 23.6875 
L 45.3125 54.6875 
L 54.296875 54.6875 
L 54.296875 0 
L 45.3125 0 
L 45.3125 8.40625 
Q 42.046875 3.421875 37.71875 1 
Q 33.40625 -1.421875 27.6875 -1.421875 
Q 18.265625 -1.421875 13.375 4.4375 
Q 8.5 10.296875 8.5 21.578125 
z
M 31.109375 56 
z
" id="DejaVuSans-117"/>
      <path d="M 52 44.1875 
Q 55.375 50.25 60.0625 53.125 
Q 64.75 56 71.09375 56 
Q 79.640625 56 84.28125 50.015625 
Q 88.921875 44.046875 88.921875 33.015625 
L 88.921875 0 
L 79.890625 0 
L 79.890625 32.71875 
Q 79.890625 40.578125 77.09375 44.375 
Q 74.3125 48.1875 68.609375 48.1875 
Q 61.625 48.1875 57.5625 43.546875 
Q 53.515625 38.921875 53.515625 30.90625 
L 53.515625 0 
L 44.484375 0 
L 44.484375 32.71875 
Q 44.484375 40.625 41.703125 44.40625 
Q 38.921875 48.1875 33.109375 48.1875 
Q 26.21875 48.1875 22.15625 43.53125 
Q 18.109375 38.875 18.109375 30.90625 
L 18.109375 0 
L 9.078125 0 
L 9.078125 54.6875 
L 18.109375 54.6875 
L 18.109375 46.1875 
Q 21.1875 51.21875 25.484375 53.609375 
Q 29.78125 56 35.6875 56 
Q 41.65625 56 45.828125 52.96875 
Q 50 49.953125 52 44.1875 
z
" id="DejaVuSans-109"/>
      <path d="M 56.203125 29.59375 
L 56.203125 25.203125 
L 14.890625 25.203125 
Q 15.484375 15.921875 20.484375 11.0625 
Q 25.484375 6.203125 34.421875 6.203125 
Q 39.59375 6.203125 44.453125 7.46875 
Q 49.3125 8.734375 54.109375 11.28125 
L 54.109375 2.78125 
Q 49.265625 0.734375 44.1875 -0.34375 
Q 39.109375 -1.421875 33.890625 -1.421875 
Q 20.796875 -1.421875 13.15625 6.1875 
Q 5.515625 13.8125 5.515625 26.8125 
Q 5.515625 40.234375 12.765625 48.109375 
Q 20.015625 56 32.328125 56 
Q 43.359375 56 49.78125 48.890625 
Q 56.203125 41.796875 56.203125 29.59375 
z
M 47.21875 32.234375 
Q 47.125 39.59375 43.09375 43.984375 
Q 39.0625 48.390625 32.421875 48.390625 
Q 24.90625 48.390625 20.390625 44.140625 
Q 15.875 39.890625 15.1875 32.171875 
z
" id="DejaVuSans-101"/>
      <path d="M 41.109375 46.296875 
Q 39.59375 47.171875 37.8125 47.578125 
Q 36.03125 48 33.890625 48 
Q 26.265625 48 22.1875 43.046875 
Q 18.109375 38.09375 18.109375 28.8125 
L 18.109375 0 
L 9.078125 0 
L 9.078125 54.6875 
L 18.109375 54.6875 
L 18.109375 46.1875 
Q 20.953125 51.171875 25.484375 53.578125 
Q 30.03125 56 36.53125 56 
Q 37.453125 56 38.578125 55.875 
Q 39.703125 55.765625 41.0625 55.515625 
z
" id="DejaVuSans-114"/>
     </defs>
     <g transform="translate(94.6 72.748563)scale(0.1 -0.1)">
      <use xlink:href="#DejaVuSans-83"/>
      <use x="63.476562" xlink:href="#DejaVuSans-117"/>
      <use x="126.855469" xlink:href="#DejaVuSans-109"/>
      <use x="224.267578" xlink:href="#DejaVuSans-109"/>
      <use x="321.679688" xlink:href="#DejaVuSans-101"/>
      <use x="383.203125" xlink:href="#DejaVuSans-114"/>
      <use x="424.316406" xlink:href="#DejaVuSans-32"/>
      <use x="456.103516" xlink:href="#DejaVuSans-50"/>
      <use x="519.726562" xlink:href="#DejaVuSans-48"/>
      <use x="583.349609" xlink:href="#DejaVuSans-49"/>
      <use x="646.972656" xlink:href="#DejaVuSans-57"/>
     </g>
    </g>
    <g id="PathCollection_7">
     <path d="M 76.6 97.632315 
C 80.002722 97.632315 83.266536 96.280399 85.672624 93.874311 
C 88.078712 91.468223 89.430627 88.20441 89.430627 84.801688 
C 89.430627 81.398965 88.078712 78.135152 85.672624 75.729064 
C 83.266536 73.322976 80.002722 71.97106 76.6 71.97106 
C 73.197278 71.97106 69.933464 73.322976 67.527376 75.729064 
C 65.121288 78.135152 63.769373 81.398965 63.769373 84.801688 
C 63.769373 88.20441 65.121288 91.468223 67.527376 93.874311 
C 69.933464 96.280399 73.197278 97.632315 76.6 97.632315 
z
" style="fill:#2ca02c;fill-opacity:0.3;"/>
    </g>
    <g id="text_16">
     <!-- Summer 2020 -->
     <g transform="translate(94.6 87.426688)scale(0.1 -0.1)">
      <use xlink:href="#DejaVuSans-83"/>
      <use x="63.476562" xlink:href="#DejaVuSans-117"/>
      <use x="126.855469" xlink:href="#DejaVuSans-109"/>
      <use x="224.267578" xlink:href="#DejaVuSans-109"/>
      <use x="321.679688" xlink:href="#DejaVuSans-101"/>
      <use x="383.203125" xlink:href="#DejaVuSans-114"/>
      <use x="424.316406" xlink:href="#DejaVuSans-32"/>
      <use x="456.103516" xlink:href="#DejaVuSans-50"/>
      <use x="519.726562" xlink:href="#DejaVuSans-48"/>
      <use x="583.349609" xlink:href="#DejaVuSans-50"/>
      <use x="646.972656" xlink:href="#DejaVuSans-48"/>
     </g>
    </g>
    <g id="PathCollection_8">
     <path d="M 76.6 112.31044 
C 80.002722 112.31044 83.266536 110.958524 85.672624 108.552436 
C 88.078712 106.146348 89.430627 102.882535 89.430627 99.479813 
C 89.430627 96.07709 88.078712 92.813277 85.672624 90.407189 
C 83.266536 88.001101 80.002722 86.649185 76.6 86.649185 
C 73.197278 86.649185 69.933464 88.001101 67.527376 90.407189 
C 65.121288 92.813277 63.769373 96.07709 63.769373 99.479813 
C 63.769373 102.882535 65.121288 106.146348 67.527376 108.552436 
C 69.933464 110.958524 73.197278 112.31044 76.6 112.31044 
z
" style="fill:#d62728;fill-opacity:0.3;"/>
    </g>
    <g id="text_17">
     <!-- Spring 2020 -->
     <defs>
      <path d="M 18.109375 8.203125 
L 18.109375 -20.796875 
L 9.078125 -20.796875 
L 9.078125 54.6875 
L 18.109375 54.6875 
L 18.109375 46.390625 
Q 20.953125 51.265625 25.265625 53.625 
Q 29.59375 56 35.59375 56 
Q 45.5625 56 51.78125 48.09375 
Q 58.015625 40.1875 58.015625 27.296875 
Q 58.015625 14.40625 51.78125 6.484375 
Q 45.5625 -1.421875 35.59375 -1.421875 
Q 29.59375 -1.421875 25.265625 0.953125 
Q 20.953125 3.328125 18.109375 8.203125 
z
M 48.6875 27.296875 
Q 48.6875 37.203125 44.609375 42.84375 
Q 40.53125 48.484375 33.40625 48.484375 
Q 26.265625 48.484375 22.1875 42.84375 
Q 18.109375 37.203125 18.109375 27.296875 
Q 18.109375 17.390625 22.1875 11.75 
Q 26.265625 6.109375 33.40625 6.109375 
Q 40.53125 6.109375 44.609375 11.75 
Q 48.6875 17.390625 48.6875 27.296875 
z
" id="DejaVuSans-112"/>
      <path d="M 9.421875 54.6875 
L 18.40625 54.6875 
L 18.40625 0 
L 9.421875 0 
z
M 9.421875 75.984375 
L 18.40625 75.984375 
L 18.40625 64.59375 
L 9.421875 64.59375 
z
" id="DejaVuSans-105"/>
      <path d="M 54.890625 33.015625 
L 54.890625 0 
L 45.90625 0 
L 45.90625 32.71875 
Q 45.90625 40.484375 42.875 44.328125 
Q 39.84375 48.1875 33.796875 48.1875 
Q 26.515625 48.1875 22.3125 43.546875 
Q 18.109375 38.921875 18.109375 30.90625 
L 18.109375 0 
L 9.078125 0 
L 9.078125 54.6875 
L 18.109375 54.6875 
L 18.109375 46.1875 
Q 21.34375 51.125 25.703125 53.5625 
Q 30.078125 56 35.796875 56 
Q 45.21875 56 50.046875 50.171875 
Q 54.890625 44.34375 54.890625 33.015625 
z
" id="DejaVuSans-110"/>
      <path d="M 45.40625 27.984375 
Q 45.40625 37.75 41.375 43.109375 
Q 37.359375 48.484375 30.078125 48.484375 
Q 22.859375 48.484375 18.828125 43.109375 
Q 14.796875 37.75 14.796875 27.984375 
Q 14.796875 18.265625 18.828125 12.890625 
Q 22.859375 7.515625 30.078125 7.515625 
Q 37.359375 7.515625 41.375 12.890625 
Q 45.40625 18.265625 45.40625 27.984375 
z
M 54.390625 6.78125 
Q 54.390625 -7.171875 48.1875 -13.984375 
Q 42 -20.796875 29.203125 -20.796875 
Q 24.46875 -20.796875 20.265625 -20.09375 
Q 16.0625 -19.390625 12.109375 -17.921875 
L 12.109375 -9.1875 
Q 16.0625 -11.328125 19.921875 -12.34375 
Q 23.78125 -13.375 27.78125 -13.375 
Q 36.625 -13.375 41.015625 -8.765625 
Q 45.40625 -4.15625 45.40625 5.171875 
L 45.40625 9.625 
Q 42.625 4.78125 38.28125 2.390625 
Q 33.9375 0 27.875 0 
Q 17.828125 0 11.671875 7.65625 
Q 5.515625 15.328125 5.515625 27.984375 
Q 5.515625 40.671875 11.671875 48.328125 
Q 17.828125 56 27.875 56 
Q 33.9375 56 38.28125 53.609375 
Q 42.625 51.21875 45.40625 46.390625 
L 45.40625 54.6875 
L 54.390625 54.6875 
z
" id="DejaVuSans-103"/>
     </defs>
     <g transform="translate(94.6 102.104813)scale(0.1 -0.1)">
      <use xlink:href="#DejaVuSans-83"/>
      <use x="63.476562" xlink:href="#DejaVuSans-112"/>
      <use x="126.953125" xlink:href="#DejaVuSans-114"/>
      <use x="168.066406" xlink:href="#DejaVuSans-105"/>
      <use x="195.849609" xlink:href="#DejaVuSans-110"/>
      <use x="259.228516" xlink:href="#DejaVuSans-103"/>
      <use x="322.705078" xlink:href="#DejaVuSans-32"/>
      <use x="354.492188" xlink:href="#DejaVuSans-50"/>
      <use x="418.115234" xlink:href="#DejaVuSans-48"/>
      <use x="481.738281" xlink:href="#DejaVuSans-50"/>
      <use x="545.361328" xlink:href="#DejaVuSans-48"/>
     </g>
    </g>
   </g>
  </g>
 </g>
 <defs>
  <clipPath id="pf02261ca18">
   <rect height="266.112" width="357.12" x="57.6" y="41.472"/>
  </clipPath>
 </defs>
</svg>
